<?xml version="1.0" encoding="UTF-8"?>
<svg id="Layer_1" data-name="Layer 1" xmlns="http://www.w3.org/2000/svg" viewBox="0 0 919.84 634.52">
  <defs>
    <style>
      .cls-1, .cls-2, .cls-3, .cls-4, .cls-5 {
        stroke-width: 0px;
      }

      .cls-1, .cls-2, .cls-5 {
        fill-rule: evenodd;
      }

      .cls-1, .cls-4 {
        fill: #221f20;
      }

      .cls-2 {
        fill: #5a3cff;
      }
    </style>
  </defs>
  <path class="cls-2" d="m663.92,294.62s-.7,2.32.44,4.06c1.15,1.75,5,.72,5.47-.77.48-1.49-.58-3.31-.58-3.31l-5.33.02Z"/>
  <path class="cls-2" d="m206.44,282.26s.89-.75,2.04-1.83c.61-.57,1.3-1.22,1.96-1.91.38-.4.75-.82,1.09-1.22,1.37-1.59,2.46-2.94,2.46-2.94.47-.49.45-1.26-.04-1.73-.49-.47-1.26-.45-1.72.04,0,0-1.31,1.14-2.83,2.58-.38.37-.79.75-1.17,1.15-.65.69-1.28,1.4-1.82,2.04-1.02,1.2-1.73,2.12-1.73,2.12-.47.49-.45,1.27.04,1.74.49.47,1.27.45,1.74-.04Z"/>
  <path class="cls-2" d="m211.82,293.08s.55-.55,1.25-1.36c.37-.43.79-.91,1.16-1.43.22-.3.42-.62.6-.93.75-1.21,1.31-2.24,1.31-2.24.4-.55.28-1.31-.27-1.71-.55-.4-1.31-.28-1.71.27,0,0-.8.85-1.72,1.93-.23.27-.48.56-.69.86-.38.52-.72,1.06-1.01,1.54-.55.92-.91,1.61-.91,1.61-.4.55-.28,1.32.27,1.72.55.4,1.32.28,1.72-.27Z"/>
  <path class="cls-2" d="m218.12,288.48s-.32,1.35-.66,3.19c-.18.98-.39,2.09-.55,3.2-.09.65-.15,1.31-.22,1.94-.25,2.48-.38,4.54-.38,4.54-.1.67.37,1.29,1.04,1.38.67.09,1.29-.37,1.38-1.04,0,0,.44-2.02.89-4.47.12-.62.24-1.27.33-1.92.15-1.12.26-2.24.36-3.23.17-1.86.24-3.25.24-3.25.1-.67-.37-1.3-1.05-1.39-.67-.09-1.29.37-1.39,1.05Z"/>
  <path class="cls-2" d="m223.77,292.1s-.26,1.42-.53,3.36c-.15,1.03-.3,2.2-.42,3.37-.06.69-.1,1.37-.14,2.03-.14,2.6-.18,4.76-.18,4.76-.06.67.43,1.27,1.1,1.33.67.06,1.27-.43,1.33-1.1,0,0,.35-2.13.7-4.71.09-.66.18-1.34.25-2.02.11-1.18.17-2.35.22-3.39.09-1.95.11-3.4.11-3.4.06-.68-.43-1.28-1.11-1.34-.68-.06-1.28.43-1.34,1.11Z"/>
  <path class="cls-2" d="m229.91,295.13s.1,1.7.32,3.98c.12,1.21.26,2.59.45,3.96.11.8.25,1.6.38,2.36.52,3.01,1.01,5.5,1.01,5.5.09.67.71,1.14,1.38,1.05.66-.09,1.13-.71,1.05-1.38,0,0-.19-2.53-.5-5.57-.08-.77-.15-1.58-.27-2.38-.18-1.37-.42-2.74-.63-3.94-.39-2.26-.75-3.92-.75-3.92-.09-.67-.71-1.14-1.39-1.05-.67.09-1.14.71-1.05,1.38Z"/>
  <path class="cls-2" d="m238.28,297.07s.36,1.76.92,4.12c.3,1.25.65,2.68,1.04,4.09.22.82.49,1.64.73,2.42.96,3.08,1.82,5.62,1.82,5.62.18.65.85,1.03,1.51.85.65-.18,1.03-.86.85-1.51,0,0-.57-2.62-1.33-5.76-.19-.8-.39-1.63-.62-2.45-.39-1.41-.83-2.81-1.22-4.04-.74-2.31-1.34-4-1.34-4-.18-.65-.85-1.04-1.51-.86s-1.04.86-.85,1.51Z"/>
  <path class="cls-2" d="m248.26,296.94s.46,1.63,1.15,3.82c.37,1.16.8,2.47,1.27,3.78.28.76.58,1.51.86,2.23,1.14,2.83,2.15,5.15,2.15,5.15.23.63.93.96,1.56.73.63-.23.96-.93.73-1.56,0,0-.72-2.43-1.66-5.33-.24-.74-.48-1.51-.76-2.27-.47-1.3-.99-2.58-1.44-3.71-.87-2.12-1.56-3.67-1.56-3.67-.23-.64-.94-.97-1.58-.74-.64.23-.97.94-.74,1.57Z"/>
  <path class="cls-2" d="m256.69,296.21s.95,1.6,2.29,3.72c.72,1.13,1.53,2.41,2.39,3.66.5.73,1.02,1.45,1.52,2.13,1.97,2.7,3.66,4.9,3.66,4.9.38.56,1.14.7,1.7.32.55-.38.69-1.14.32-1.7,0,0-1.44-2.37-3.23-5.19-.45-.72-.93-1.46-1.43-2.19-.85-1.25-1.75-2.48-2.54-3.55-1.49-2.02-2.64-3.49-2.64-3.49-.38-.56-1.15-.71-1.71-.32-.56.38-.7,1.15-.32,1.71Z"/>
  <path class="cls-2" d="m264.96,295.07s.68,1.05,1.68,2.42c.52.73,1.12,1.55,1.76,2.35.37.47.77.91,1.15,1.34,1.49,1.69,2.77,3.05,2.77,3.05.42.53,1.19.61,1.72.19.52-.42.61-1.19.18-1.72,0,0-1.05-1.55-2.37-3.37-.34-.46-.69-.94-1.06-1.41-.64-.8-1.31-1.56-1.91-2.23-1.13-1.26-2-2.16-2-2.16-.43-.53-1.2-.61-1.73-.19-.53.42-.62,1.2-.19,1.73Z"/>
  <path class="cls-5" d="m177.25,172.64s-8.85.1-12.79,6.21c-3.95,6.1-5.12,14.42-2.79,22.86,0,0,4.97,13.66,6.62,16l13.8.37s3.54-25.52,2.46-33.8c0,0,30.23,5.42,40.65,2.53,10.42-2.89,29.41-14.28,29.28-22.19-.12-7.91-1.93-10.4-3.93-10.59-1.99-.18-3.29,1.95-4.07,3.32-.79,1.37-3.73,4.38-7.71,4.37-11.99-.03-15.53-7.76-29.69-7.4-7.8.2-26.28,5.75-31.83,18.31Z"/>
  <path class="cls-5" d="m159.16,399.42l-9.88-19.01-12.98,5,1.66,8.64s-9.52-3.69-15.81-2.53c-6.29,1.15-17.46,9.81-17.78,14.7-.32,4.88,7.61-.85,16.27-2.53l14.23,1.36,3.6,5.78,20.69-11.41Z"/>
  <path class="cls-5" d="m159.75,400.49c.58-.32.8-1.05.49-1.65,0,0-9.75-19.07-9.75-19.07-.32-.61-1.05-.89-1.7-.64l-13.01,4.93c-.65.25-1.03.93-.89,1.61l1.15,6.14c-1.83-.58-4.48-1.32-7.24-1.73-2.37-.35-4.82-.47-6.93-.09-3.72.68-9.09,3.8-13.13,7.36-2.01,1.78-3.69,3.66-4.71,5.38-.71,1.2-1.12,2.35-1.18,3.36-.1,1.56.44,2.48,1.19,2.99.65.46,1.62.66,2.88.45,2.91-.46,8.18-3.27,13.79-4.41,0,0,13.34,1.22,13.34,1.22l3.26,5.18c.38.6,1.17.81,1.8.46l20.63-11.53h0Zm-53.86,6.11c0-.09-.01-.2,0-.29.05-.76.49-1.61,1.11-2.53,1.24-1.83,3.28-3.8,5.56-5.57,3.28-2.54,7.08-4.68,9.87-5.2,1.81-.34,3.91-.22,5.95.07,4.7.67,9.06,2.33,9.06,2.33.5.2,1.06.1,1.47-.24.41-.35.6-.89.5-1.41l-1.47-7.45,10.7-4.19,8.86,16.8-18.57,10.11-2.9-4.71c-.23-.37-.62-.61-1.05-.65l-14.22-1.43c-.14-.01-.28,0-.41.02-4.72.88-9.24,2.96-12.35,3.93-.34.1-.66.2-.96.27-.4.1-.91.13-1.16.14Z"/>
  <path class="cls-3" d="m175.71,372.83l11.6,76.64-26.74-51.41-24.5,15.26s33.6,89.76,58.96,82.65c25.36-7.11,31.56-41.56,31.42-94.54l26.04,62.56-48.71,58.03,18.53,20.27s59.7-43.66,62.76-73.02c3.06-29.36-16.21-103.54-16.21-103.54l-93.14,7.08Z"/>
  <path class="cls-1" d="m175.62,370.67c-.34.03-.65.19-.86.46-.22.27-.31.61-.25.95,0,0,10.33,68.83,10.33,68.83l-23.05-44.41c-.18-.34-.49-.59-.85-.69-.37-.1-.77-.04-1.09.16l-24.52,15.24c-.57.35-.81,1.06-.57,1.68,0,0,15.73,42.09,33.82,66.52,4.46,6.02,9.07,10.97,13.62,14.03,4.5,3.03,8.98,4.23,13.24,3.04,13.47-3.77,21.85-14.9,26.68-32.33,4.03-14.5,5.61-33.43,5.85-56.03,0,0,22.76,54.68,22.76,54.68l-48.09,57.34c-.49.58-.47,1.42.04,1.98l18.55,20.26c.51.56,1.35.64,1.97.2,0,0,25.29-18.53,43.86-39.6,10.2-11.57,18.33-23.94,19.41-34.47,1.07-10.29-.57-26.03-3.19-42.2-4.89-30.16-13.14-61.81-13.14-61.81-.16-.61-.74-1.03-1.37-.98l-93.13,7.17h0Zm1.51,2.35l90.72-6.81c1.45,5.73,8.41,33.72,12.7,60.53,2.55,15.89,4.17,31.36,3.11,41.47-1.06,10.07-9.01,21.8-18.78,32.86-16.16,18.27-37.43,34.6-42.39,38.32l-16.73-18.32,47.89-57.01c.37-.44.46-1.05.25-1.57l-26.04-62.56c-.28-.68-.99-1.06-1.72-.91-.72.14-1.23.78-1.23,1.51.08,25.65-1.33,46.93-5.72,62.83-4.49,16.23-12.05,26.76-24.58,30.28-3.47.98-7.11-.16-10.79-2.63-4.32-2.9-8.68-7.62-12.91-13.32-16.24-21.85-30.56-58.04-33.13-64.69l22.25-13.89,26.11,50.07c.3.57.97.84,1.58.64.62-.2.99-.81.89-1.45l-11.49-75.33Z"/>
  <path class="cls-5" d="m242.59,179.76s1.31,7.58,2.56,16.82c.73,5.45,1.43,11.48,1.82,16.86.24,3.18.37,6.14.3,8.61-.05,2.26-.24,4.09-.71,5.25-1.01,2.52-3.58,4.36-6.47,5.78-6.14,3.01-13.84,4.01-13.84,4.01-.67.08-1.15.69-1.07,1.36.08.67.69,1.15,1.35,1.07,0,0,8.18-.87,14.76-3.94,3.61-1.68,6.7-4.07,8-7.17,1.11-2.67,1.26-8.46.75-15.2-.41-5.45-1.22-11.54-2.06-17.04-1.42-9.27-2.96-16.87-2.96-16.87-.12-.67-.77-1.11-1.44-.98-.67.13-1.11.77-.98,1.44Z"/>
  <path class="cls-5" d="m227.69,238.5s-.12,1.51-.2,3.56c-.04,1.09-.08,2.32-.08,3.56,0,.72.03,1.44.06,2.13.12,2.72.28,4.98.28,4.98,0,.67.55,1.22,1.23,1.22.67,0,1.22-.55,1.22-1.23,0,0,.15-2.26.24-4.98.02-.69.05-1.41.05-2.13,0-1.24-.05-2.47-.11-3.55-.1-2.05-.22-3.56-.22-3.56,0-.68-.56-1.23-1.24-1.23-.68,0-1.22.56-1.22,1.23Z"/>
  <path class="cls-5" d="m178.93,233.41s.3,2.52.79,5.9c.25,1.8.55,3.84.9,5.88.2,1.19.43,2.37.65,3.51.87,4.47,1.65,8.17,1.65,8.17.12.67.75,1.11,1.42,1,.66-.11,1.11-.75.99-1.41,0,0-.48-3.75-1.14-8.26-.17-1.14-.34-2.34-.55-3.53-.35-2.04-.74-4.07-1.09-5.85-.66-3.35-1.21-5.83-1.21-5.83-.12-.67-.75-1.12-1.42-1.01-.67.11-1.12.75-1.01,1.42Z"/>
  <path class="cls-5" d="m183.96,217.3s-7.51-2.32-13.6-1.04c-3.39.71-6.31,2.52-7.66,6.06-2.13,5.92,1.06,10.96,6.4,12.76,4.01,1.36,9.29.84,14.13-2.74.55-.39.67-1.16.28-1.71-.4-.55-1.16-.68-1.71-.28-4.1,2.84-8.46,3.22-11.76,2.02-3.73-1.35-6.02-4.85-4.46-8.99.9-2.52,3.03-3.72,5.41-4.29,5.46-1.3,12.28.57,12.28.57.65.19,1.34-.18,1.53-.83.18-.65-.18-1.34-.84-1.53Z"/>
  <path class="cls-5" d="m178.13,228.05c5.31,3.49,7.54,3.62,6.13,1.8,2.32.15.95-1.61-4.95-4.06-.15-.1-.32-.21-.48-.31-.47-.3-1.23-.81-2.12-1.33-.47-.27-.96-.55-1.47-.79-1.92-.94-3.83-1.68-3.83-1.68-.59-.31-1.33-.09-1.65.51-.32.6-.08,1.34.51,1.65,0,0,1.69,1.16,3.55,2.22.49.28.99.53,1.49.77.93.44,1.79.79,2.3,1,.18.08.35.15.53.22Z"/>
  <path class="cls-5" d="m182.96,184.83s-.18,6.57-.45,13.93c-.12,3.09-.22,6.31-.39,9.25-.26,4.21-.6,7.81-1.32,9.4-.29.61-.03,1.34.58,1.63.6.29,1.34.04,1.63-.57,1.07-2.11,1.88-7.59,2.29-13.59.18-2.67.28-5.44.31-8.04.09-6.57-.17-12.05-.17-12.05,0-.68-.57-1.22-1.25-1.22-.68,0-1.22.56-1.22,1.24Z"/>
  <path class="cls-5" d="m169.43,217.73s-3.59-6.63-5.6-15.34c-1.15-4.96-1.79-10.61-.94-16.08.73-4.6,2.48-7.5,4.56-9.29,4.21-3.61,9.65-2.67,9.65-2.67.61.1,1.21-.19,1.5-.73,0,0,3.05-5.51,9.35-10.31,3.28-2.49,7.44-4.8,12.51-6.02,5.84-1.42,10.19-1.71,13.7-1.35,5,.52,8.24,2.38,11.59,4.06,2.55,1.28,5.16,2.46,8.5,3.04,4.5.77,7.45.24,9.52-.81,2.06-1.05,3.29-2.65,4.23-4.26.51-.86.92-1.72,1.39-2.45.55-.06,1.56,0,2.34,1,.6.79,1.05,2.03,1.25,3.92.46,4.34-2.95,10.71-9.08,15.95-4.47,3.82-10.4,7.01-17.51,8.39-6.55,1.27-13.91,1.33-20.57.92-11.29-.71-20.58-2.8-20.58-2.8-.66-.15-1.32.26-1.46.92-.15.66.26,1.31.92,1.46,0,0,11.86,2.76,25.19,3.23,5.67.2,11.61-.02,17.01-1.03,7.65-1.43,14.04-4.83,18.86-8.9,7.07-5.97,10.68-13.45,10.18-18.43-.35-3.52-1.53-5.38-2.75-6.4-2.38-1.99-5.22-.97-5.22-.97-.28.1-.53.29-.72.53-.64.88-1.18,2-1.85,3.13-.69,1.16-1.54,2.34-3.02,3.09-1.65.84-4.02,1.13-7.62.51-3.84-.66-6.61-2.26-9.56-3.74-3.03-1.52-6.24-2.93-10.72-3.39-3.76-.38-8.45-.09-14.73,1.46-5.52,1.36-10.04,3.88-13.59,6.62-5.29,4.08-8.44,8.62-9.58,10.44-2.09-.12-6.97.03-10.95,3.49-2.46,2.14-4.6,5.54-5.42,11-.87,5.82-.17,11.82,1.09,17.09,2.18,9.05,5.98,15.93,5.98,15.93.32.6,1.07.81,1.67.49.59-.33.81-1.07.48-1.67Z"/>
  <path class="cls-5" d="m196.64,205.54s0,3.83,1.34,6.32c.94,1.74,2.48,2.84,4.67,2.56,2.22-.37,3.66-1.46,4.5-2.93,1.15-2.02,1.15-4.81.54-7.2-.15-.66-.8-1.08-1.45-.93-.66.14-1.08.8-.94,1.45.27,1.48.25,3.14-.28,4.48-.43,1.09-1.3,1.9-2.8,2.08-1.09.18-1.64-.74-2.06-1.67-.85-1.9-1.05-4.25-1.05-4.25-.02-.68-.59-1.21-1.26-1.19-.68.02-1.22.59-1.19,1.27Z"/>
  <path class="cls-5" d="m237.79,199.39s.3,2.25-.14,4.19c-.21.94-.59,1.89-1.68,1.96-1.49.18-2.48-.3-3.12-1.18-.78-1.1-1.14-2.62-1.23-4.12-.02-.67-.58-1.21-1.26-1.19-.67.01-1.21.58-1.19,1.25-.03,2.51.58,5.1,2.15,6.68,1.12,1.13,2.72,1.78,4.94,1.62,2.14-.25,3.38-1.58,3.93-3.36.84-2.67,0-6.33,0-6.33-.13-.67-.78-1.1-1.44-.97-.67.13-1.1.78-.97,1.44Z"/>
  <path class="cls-5" d="m206.31,196.35s-1.12-.33-2.81-.37c-.82-.02-1.78.04-2.79.26-.53.12-1.07.3-1.62.53-1.15.48-2.29,1.16-3.36,2.12-.53.41-.62,1.18-.22,1.71.42.53,1.19.63,1.72.22,1.08-.72,2.22-1.09,3.28-1.37.74-.2,1.46-.34,2.1-.44,1.86-.29,3.23-.24,3.23-.24.66.13,1.31-.31,1.44-.98.12-.67-.31-1.31-.98-1.44Z"/>
  <path class="cls-5" d="m229.64,194.51s1.32-.37,3.2-.54c.65-.06,1.38-.09,2.15-.07,1.1.03,2.29.11,3.51.56.61.28,1.34,0,1.62-.62.27-.61,0-1.34-.62-1.61-1.26-.68-2.54-1.07-3.76-1.26-.59-.09-1.15-.14-1.69-.13-1.04.02-1.98.19-2.78.41-1.64.44-2.64,1.03-2.64,1.03-.62.28-.89,1.01-.61,1.63.29.62,1.02.89,1.63.61Z"/>
  <path class="cls-5" d="m224.5,210.17l-3.41,1.35c-.64.21-.99.91-.77,1.55.22.64.9.99,1.55.77l5.48-1.5c.46-.15.82-.52.98-.99.15-.47.07-.97-.22-1.37,0,0-.43-.62-1.03-1.37-1.05-1.33-2.58-3.09-2.58-3.09-.39-.55-1.16-.67-1.72-.27-.55.4-.67,1.17-.27,1.72,0,0,1.09,1.81,1.99,3.21Z"/>
  <path class="cls-5" d="m214.82,220.59s1.65.42,4.06.64c1.22.11,2.63.18,4.12.1.81-.05,1.65-.15,2.48-.3,1.97-.35,3.92-.95,5.63-1.88.61-.3.86-1.03.56-1.63-.29-.61-1.02-.86-1.63-.56-1.76.76-3.76,1.04-5.71,1.21-1.25.11-2.48.15-3.61.17-3.1.05-5.47-.17-5.47-.17-.67-.12-1.31.33-1.43,1-.12.67.33,1.31,1,1.43Z"/>
  <path class="cls-5" d="m213.19,220.01s.93,3.51,2.65,6.85c.8,1.56,1.79,3.07,2.91,4.22,1.7,1.75,3.74,2.63,5.94,2.11,2.46-.63,4.15-2.58,5.17-5.01,1.74-4.13,1.59-9.54,1.59-9.54,0-.67-.55-1.22-1.23-1.21-.68,0-1.22.56-1.22,1.23,0,0-.09,4.77-1.77,8.36-.71,1.51-1.69,2.84-3.26,3.2-.73.18-1.41-.04-2.04-.43-.74-.46-1.42-1.15-2.04-1.94-2.66-3.38-4.34-8.54-4.34-8.54-.19-.65-.88-1.02-1.53-.83-.65.19-1.02.88-.83,1.53Z"/>
  <path class="cls-5" d="m184.7,255.68c-.51-.31-1.16-.21-1.56.23,0,0-5.74,6.29-5.74,6.29-.44.5-.45,1.24-.02,1.75l17.82,21.14c.32.36.78.56,1.25.53.48-.03.92-.28,1.19-.68l9.41-14.09c.22-.33.3-.74.22-1.13-.08-.39-.32-.73-.67-.94l-21.91-13.1h0Zm-.39,2.64l19.47,12.15-7.54,11.1-16.07-18.49,4.14-4.76Z"/>
  <path class="cls-5" d="m210.28,268.13c-.52.44-.57,1.21-.12,1.72,0,0,9.9,11.69,9.9,11.69.29.34.73.52,1.18.47.45-.04.85-.3,1.07-.69,0,0,4.65-7.85,8.63-14.67,3.03-5.21,5.67-9.82,5.67-9.82.24-.41.27-.9.09-1.34-.18-.44-.55-.77-1.01-.89l-7.06-1.89c-.48-.13-.99-.01-1.35.31l-17,15.1h0Zm2.56,1.05l15.77-13.41,4.38,1.23c-1.05,1.8-2.8,4.84-4.69,8.13-2.82,4.93-5.92,10.41-7.44,13.12l-8.01-9.07h0Z"/>
  <path class="cls-5" d="m205.67,274.28s.82,0,1.92-.07c.59-.04,1.25-.09,1.91-.18.38-.06.77-.14,1.13-.22,1.45-.32,2.62-.65,2.62-.65.67-.1,1.13-.72,1.03-1.39-.1-.67-.72-1.13-1.39-1.03,0,0-1.22.02-2.69.13-.37.03-.76.05-1.15.11-.65.1-1.31.24-1.88.37-1.09.25-1.87.49-1.87.49-.67.1-1.13.72-1.03,1.39.09.67.72,1.14,1.39,1.04Z"/>
  <path class="cls-5" d="m200.96,280.3l6.57,5.93c.38.32.89.44,1.37.31l5.35-1.48c.41-.11.75-.38.93-.75l3.19-6.79c.31-.6.07-1.34-.53-1.65-.6-.31-1.34-.07-1.65.53l-3.31,5.96-4.03,1.04-6.32-4.98c-.52-.44-1.29-.37-1.73.15-.44.52-.37,1.3.15,1.73Z"/>
  <path class="cls-5" d="m207.64,286.12s.48,3.66,1.18,6.96c.41,1.96.92,3.8,1.42,4.77.89,1.73,10.73,12.67,28.41,16.1,8.88,1.72,19.74,1.55,32.42-2.64.33-.11.61-.33.8-.62l7.45-11.46c.25-.38.32-.85.18-1.28-.13-.43-.45-.78-.87-.95l-12.38-5.02c-.27-.11-.57-.14-.86-.08,0,0-13.61,2.85-26.24,1.95-6.21-.44-12.2-1.76-16.08-4.91-.02-.02-.05-.04-.08-.06l-8.3-5.74c-.55-.39-1.32-.25-1.7.3-.38.55-.25,1.32.3,1.7l8.2,5.79c4.21,3.47,10.69,5.09,17.45,5.64,11.63.94,24.1-1.22,26.6-1.69l10.24,4.23-6.18,9.45c-11.86,3.89-22.03,4.08-30.39,2.52-16.44-3.06-25.81-12.85-26.67-14.45-.44-.83-.85-2.42-1.23-4.1-.72-3.2-1.23-6.76-1.23-6.76-.09-.67-.71-1.14-1.39-1.05-.67.09-1.14.71-1.05,1.39Z"/>
  <path class="cls-5" d="m116.03,180.6s.45,20.88,2.17,39.63c1.02,11.08,2.52,21.41,4.5,26.39,2.92,7.22,8.84,12.86,18.52,16.04,8.76,2.88,20.69,3.73,36.32,1.91.67-.07,1.15-.68,1.09-1.35-.08-.67-.68-1.15-1.35-1.08-15.16,1.58-26.69.66-35.15-2.21-8.67-2.94-14.01-7.95-16.58-14.45-1.93-4.81-3.33-14.82-4.4-25.53-1.87-18.64-2.66-39.42-2.66-39.42-.02-.68-.59-1.21-1.27-1.19-.68.02-1.21.59-1.19,1.27Z"/>
  <path class="cls-5" d="m265.85,151.28s4.42,20.35,7.07,38.89c1.53,10.66,2.51,20.7,1.56,25.79-1.09,5.96-7.58,15.04-15.19,22.99-7.67,8.01-16.51,14.9-22.46,16.01-.67.12-1.11.76-.98,1.42.12.67.75,1.11,1.42.99,6.3-1.09,15.85-8.08,24.05-16.46,8.17-8.35,14.97-18.06,16.18-24.38.98-5.29.05-15.73-1.63-26.79-2.82-18.61-7.6-39-7.6-39-.15-.66-.81-1.08-1.47-.93-.66.15-1.08.81-.93,1.47Z"/>
  <path class="cls-5" d="m163.84,299.74s-22.08-2.15-40.86-15.38c-10.69-7.54-20.33-18.69-24.1-35.19-3.86-16.63-4.63-34.36-4.08-50.22.98-28.03,6.13-50.23,6.13-50.23,0-.03,0-.05.02-.08,0,0,.25-1.48,1.21-2.64.48-.57,1.14-1.06,2.08-1.19.22.06.65.21,1.03.52.25.21.48.51.55.94.12.67.75,1.11,1.41,1,.67-.11,1.12-.75,1-1.41-.18-1.08-.74-1.85-1.38-2.4-1.05-.9-2.35-1.12-2.35-1.12-.1-.02-.2-.02-.31-.01-1.41.11-2.49.68-3.33,1.42-1.76,1.57-2.32,4-2.4,4.41-.13.53-5.44,22.71-6.57,50.68-.65,16.1.12,34.12,3.99,51.02,4.04,17.31,14.18,29,25.46,36.84,19.46,13.51,42.27,15.5,42.27,15.5.68.06,1.28-.44,1.34-1.11.06-.68-.44-1.28-1.12-1.34Z"/>
  <path class="cls-5" d="m261.85,293.69l-.4-4.28c3.33-2.27,19.1-13.64,30.54-32.56,7.1-11.76,12.52-26.44,12.32-43.63-.27-17.34-3.82-35.02-8.28-50.5-7.73-26.84-18.14-47.09-18.44-47.67-.16-.34-1.29-2.59-3.38-3.7-.98-.52-2.17-.82-3.57-.59-.11.02-.2.05-.3.09,0,0-1.2.52-2.01,1.64-.49.68-.85,1.56-.77,2.66.05.67.63,1.18,1.31,1.13.67-.05,1.18-.63,1.13-1.3-.03-.43.12-.78.31-1.04.29-.4.68-.65.88-.75.94-.1,1.7.22,2.3.66,1.21.9,1.8,2.28,1.8,2.28.01.02.02.05.03.07,0,0,10.29,20.33,17.92,47.32,4.31,15.27,7.78,32.68,7.99,49.75.27,16.57-4.94,30.72-11.71,42.11-12.38,20.78-30.08,32.36-30.08,32.36-.39.25-.61.71-.56,1.17l.52,5.03c.07.67.67,1.17,1.35,1.1.67-.07,1.17-.67,1.1-1.34Z"/>
  <path class="cls-5" d="m105.7,161.44s.42-2.54.97-5.63c.32-1.81.7-3.81,1.05-5.59.38-1.95.69-3.62,1.05-4.36.37-.75.97-1.15,1.62-1.14.72.02,1.45.43,1.85,1.21.28.61,1.02.87,1.62.58.61-.29.87-1.02.59-1.63-.76-1.75-2.32-2.71-3.9-2.85-1.62-.14-3.3.63-4.34,2.47-.36.65-.79,1.91-1.15,3.49-.23.99-.45,2.12-.65,3.29-.74,4.61-1.15,9.86-1.15,9.86-.08.67.4,1.29,1.08,1.37.67.08,1.29-.4,1.37-1.07Z"/>
  <path class="cls-5" d="m276.04,128.81s-1.65-5-3.46-9.31c-.47-1.09-.95-2.13-1.41-3.04-.73-1.44-1.45-2.57-1.95-3.11-1.45-1.53-3.26-1.89-4.8-1.36-1.5.51-2.79,1.82-3.11,3.7-.13.66.3,1.31.96,1.44.66.14,1.31-.29,1.44-.95.2-.85.81-1.42,1.51-1.61.62-.17,1.3.08,1.84.72.53.62,1.23,2.18,2.06,3.98.76,1.65,1.6,3.49,2.35,5.18,1.27,2.87,2.28,5.24,2.28,5.24.24.63.96.96,1.59.72.64-.24.96-.95.72-1.59Z"/>
  <path class="cls-5" d="m128.84,159.98c.55.13.72.71.71,1.34-.02.81-.35,1.73-1.02,2.57l-12.28,15.28c-.43.52-.35,1.29.17,1.72.52.43,1.29.35,1.72-.17l12.59-15.06c1.42-1.73,1.89-3.72,1.65-5.28-.27-1.7-1.34-2.95-2.99-3.3-.47-.1-1.09-.06-1.81.16-.74.23-1.64.66-2.6,1.22-1.38.8-2.89,1.87-4.17,2.81.28-2.75.62-6.59.7-9.79.05-1.95,0-3.68-.18-4.83-.12-.71-.29-1.25-.49-1.6-.96-1.65-2.36-2.46-3.75-2.56-1.45-.11-2.96.54-4.07,2.05-.54.74-1.11,2.73-1.52,5.16-.8,4.73-1.28,11.17-1.28,11.17-.06.68.44,1.27,1.12,1.33.68.06,1.28-.44,1.33-1.12,0,0,.49-5.01,1.22-9.37.27-1.59.56-3.08.89-4.2.17-.59.32-1.05.49-1.29.45-.59,1.02-.92,1.59-.87.57.05,1.06.48,1.45,1.16.16.28.18.85.22,1.59.07,1.38,0,3.22-.1,5.16-.31,5.27-1.05,11.27-1.05,11.27-.08.62.24,1.23.79,1.53.55.3,1.23.23,1.72-.17,0,0,2.9-2.44,5.66-4.24.96-.63,1.91-1.19,2.69-1.5.23-.09.59-.18.63-.18Z"/>
  <path class="cls-5" d="m250.91,133.78s.41,0,.66.03c.83.11,1.88.43,2.97.81,3.1,1.09,6.5,2.77,6.5,2.77.57.28,1.25.18,1.71-.24.47-.43.63-1.09.4-1.68,0,0-2.15-5.66-3.7-10.7-.57-1.86-1.06-3.63-1.33-4.99-.14-.73-.26-1.29-.17-1.6.21-.75.59-1.28,1.13-1.47.55-.19,1.17,0,1.75.46.23.19.48.6.79,1.14.58,1.01,1.22,2.39,1.86,3.87,1.75,4.06,3.42,8.81,3.42,8.81.21.64.92.99,1.56.77.64-.22.99-.92.77-1.56,0,0-2-6.15-3.9-10.55-.98-2.25-2.01-4.05-2.71-4.65-1.44-1.21-3.06-1.47-4.44-1.02-1.33.43-2.49,1.55-3.03,3.38-.11.38-.15.95-.1,1.67.09,1.16.46,2.85.97,4.73.85,3.09,2.09,6.74,3.01,9.35-1.47-.61-3.19-1.29-4.72-1.74-1.07-.31-2.05-.52-2.82-.57-.76-.04-1.36.06-1.8.27-1.52.73-2.27,2.2-2.12,3.92.13,1.57,1.06,3.39,2.86,4.73l15.81,11.63c.54.4,1.31.29,1.71-.25.41-.54.3-1.31-.25-1.71l-15.56-11.92c-.84-.66-1.39-1.47-1.6-2.25-.16-.61-.13-1.21.37-1.47Z"/>
  <path class="cls-5" d="m95.34,200.43s2.37.26,5.57.53c1.7.14,3.64.3,5.58.41,1.13.06,2.27.1,3.36.13,4.28.13,7.84.18,7.84.18.67.04,1.25-.48,1.29-1.15.04-.67-.48-1.25-1.15-1.29,0,0-3.54-.35-7.81-.7-1.08-.09-2.21-.18-3.35-.24-1.94-.11-3.88-.17-5.59-.22-3.22-.09-5.6-.1-5.6-.1-.69-.04-1.26.48-1.3,1.16-.04.68.49,1.26,1.16,1.3Z"/>
  <path class="cls-5" d="m292.36,162.73s-2.31.58-5.41,1.43c-1.65.45-3.52.98-5.38,1.54-1.09.33-2.17.69-3.19,1.03-4.07,1.35-7.42,2.54-7.42,2.54-.64.2-1,.88-.81,1.53.2.64.88,1.01,1.52.81,0,0,3.44-.89,7.57-2.04,1.05-.29,2.14-.6,3.23-.93,1.86-.57,3.7-1.18,5.32-1.73,3.05-1.02,5.29-1.84,5.29-1.84.65-.2,1.02-.89.82-1.54-.2-.65-.88-1.02-1.54-.82Z"/>
  <path class="cls-5" d="m163.69,301.09l9.03,69.76c.1.78.8,1.35,1.59,1.29,0,0,17.98-1.33,38.36-2.92,26.7-2.08,57.52-4.58,57.52-4.58.38-.03.74-.22.99-.52.24-.3.35-.69.3-1.07l-6.78-50.37c-.09-.67-.71-1.14-1.38-1.05-.66.09-1.14.7-1.05,1.37l6.23,48.94c-6.44.47-32.83,2.42-56.07,4.21-17.02,1.31-32.36,2.53-36.95,2.9l-9.35-68.29c-.08-.67-.71-1.15-1.38-1.06-.68.09-1.15.71-1.05,1.38Z"/>
  <g>
    <path class="cls-4" d="m404.52,364.99c-.29-7.93-2.72-51.44-4.65-56.67-1.91-5.17-4.26-14.67-4.29-14.77l-.03-.1-.06-.08c-3.75-4.88-26.69-37.65-26.92-37.98-18.7-25.07-26.91-57.55-29.57-70.35-3.98-19.13,6.45-59.85,7.6-64.22l21.95.59-2.54,62.1.02.07c2.56,10.12,35.4,67.85,36.8,70.3l.17.29,8.39-1.1,11.23,17.74,1.61-1.28,24.84,37.21,6.07-42.31,3.64-18.29c.12-.42,13.1-46.34,15.49-54.13,2.28-7.44,21.53-66.21,23.47-72.13l21.14,6.95c-1.95,7.65-27.57,107.84-29.85,113.4-2.42,5.9-8.34,41.25-6.79,55,1.42,12.63,16.26,45.93,18.5,50.91l-96.22,18.88Z"/>
    <path class="cls-3" d="m498.07,120.49l20.22,6.65c-2.68,10.47-27.48,107.44-29.72,112.88-2.43,5.93-8.38,41.44-6.82,55.24,1.39,12.3,15.34,43.92,18.29,50.49l-95.03,18.64c-.37-9.4-2.71-50.96-4.65-56.24-1.9-5.15-4.25-14.62-4.27-14.72l-.05-.2-.13-.17c-3.74-4.87-26.68-37.63-26.93-37.99-18.63-24.97-26.82-57.37-29.48-70.14-3.86-18.55,5.95-57.67,7.49-63.61l21.05.57-2.51,61.52v.15s.03.14.03.14c2.57,10.19,35.45,67.97,36.85,70.42l.33.58.67-.09,7.74-1.02,10.76,17,.6.94.87-.69.75-.6,23.82,35.67,1.45,2.17.37-2.59,5.89-40.99,3.63-18.25c.44-1.56,13.13-46.43,15.49-54.12,2.23-7.26,20.67-63.6,23.31-71.65m-.64-1.26s-21.21,64.73-23.63,72.62c-2.42,7.89-15.5,54.18-15.5,54.18l-3.64,18.32-5.89,41.02-24.42-36.57-1.6,1.27-11.1-17.54-8.38,1.1s-34.18-60-36.75-70.17l2.56-62.54-22.86-.62s-11.96,44.36-7.71,64.84c4.26,20.48,13.45,48.82,29.65,70.54,0,0,23.14,33.05,26.94,38,0,0,2.36,9.56,4.3,14.82,1.94,5.26,4.46,50.66,4.63,57.1l97.42-19.11s-17.21-37.88-18.72-51.34c-1.52-13.46,4.36-48.9,6.75-54.75,2.4-5.85,29.99-113.91,29.99-113.91l-22.06-7.26h0Z"/>
  </g>
  <path class="cls-5" d="m381.48,424.9l-16.63-13.86-4.67,5.29,5.7,6.45s-11.52,1.4-16.16,8.84c-4.63,7.43-10.85,17.2-6.94,19.83,3.91,2.63,9.16-12.99,15.71-13.92,6.55-.93,11.17,1.89,11.17,1.89,0,0,.48-6.33,11.82-14.52Z"/>
  <path class="cls-5" d="m382.19,425.89c.31-.22.49-.57.51-.95.02-.38-.15-.74-.44-.99,0,0-16.54-13.97-16.54-13.97-.57-.48-1.42-.41-1.91.15l-4.71,5.26c-.48.54-.48,1.35,0,1.88l3.98,4.54c-2.24.52-5.58,1.52-8.67,3.36-2.32,1.38-4.48,3.22-6,5.64-2.79,4.48-6.13,9.8-7.59,13.95-.6,1.73-.89,3.28-.78,4.55.12,1.48.74,2.63,1.89,3.4,1.15.78,2.38.75,3.67-.01.8-.47,1.66-1.3,2.54-2.37,1.29-1.56,2.66-3.66,4.13-5.68,1.15-1.59,2.37-3.13,3.66-4.25.89-.77,1.79-1.34,2.75-1.48,1.99-.29,3.8-.21,5.31.03,3.05.49,4.96,1.61,4.96,1.61.4.24.89.26,1.31.05.42-.21.69-.63.72-1.09,0,0,.23-2.35,3.11-6.05,1.68-2.17,4.23-4.75,8.09-7.57h0Zm-2.71-1.05c-3.43,2.59-5.79,4.98-7.41,7.02-1.89,2.37-2.83,4.32-3.29,5.62-1.02-.43-2.49-.94-4.33-1.25-1.76-.3-3.84-.41-6.16-.1-1.57.22-3.11,1.1-4.57,2.42-2.89,2.62-5.5,7.02-7.8,9.78-.55.67-1.08,1.23-1.59,1.6-.27.19-.48.42-.72.26-.54-.37-.6-1.02-.54-1.8.1-1.29.65-2.86,1.42-4.57,1.63-3.61,4.27-7.79,6.52-11.4,1.57-2.54,4.05-4.29,6.5-5.52,4.26-2.13,8.53-2.68,8.53-2.68.54-.07.99-.43,1.19-.93.19-.51.09-1.08-.27-1.49l-4.9-5.49,2.93-3.37,14.48,11.89h0Z"/>
  <path class="cls-5" d="m540.84,405.6l7.63-20.26,6.68,2.3-1.78,8.42s10.72-4.46,18.42-.28c7.69,4.18,17.92,9.61,15.82,13.82-2.1,4.22-14.38-6.78-20.54-4.36-6.16,2.42-8.78,7.15-8.78,7.15,0,0-3.54-5.27-17.44-6.8Z"/>
  <path class="cls-5" d="m539.68,405.17c-.14.35-.1.75.1,1.07s.54.53.92.57c4.75.55,8.24,1.54,10.77,2.59,4.33,1.8,5.69,3.73,5.69,3.73.26.39.7.61,1.17.59.47-.02.89-.28,1.11-.69,0,0,1.11-1.92,3.52-3.85,1.2-.96,2.73-1.92,4.6-2.65.91-.35,1.97-.3,3.12-.07,1.67.34,3.49,1.08,5.28,1.89,2.27,1.03,4.51,2.18,6.4,2.9,1.29.5,2.45.79,3.38.8,1.5.02,2.58-.56,3.2-1.8.62-1.23.59-2.54-.03-3.88-.53-1.15-1.54-2.36-2.92-3.57-3.32-2.89-8.85-5.87-13.49-8.39-2.51-1.35-5.3-1.89-8-1.94-3.59-.08-6.99.7-9.2,1.36l1.22-5.91c.15-.7-.25-1.41-.93-1.64l-6.69-2.25c-.7-.24-1.47.12-1.73.81l-7.5,20.31h0Zm2.86-.6l6.73-17.49,4.21,1.48-1.56,7.19c-.11.53.08,1.08.5,1.43.42.35.99.44,1.49.23,0,0,3.98-1.63,8.74-1.88,2.74-.14,5.76.15,8.38,1.59,3.74,2.04,8.1,4.37,11.3,6.7,1.52,1.11,2.77,2.2,3.49,3.27.44.64.71,1.24.42,1.83-.13.26-.42.16-.75.13-.63-.07-1.36-.3-2.18-.61-3.36-1.27-7.81-3.81-11.61-4.66-1.92-.43-3.69-.44-5.17.14-2.17.87-3.93,2-5.31,3.12-1.44,1.18-2.47,2.35-3.14,3.23-1.05-.91-2.82-2.14-5.64-3.27-2.42-.97-5.65-1.89-9.91-2.44h0Z"/>
  <path class="cls-5" d="m467.48,173.65s.46-16.55-12.22-26.72c-6.03-4.83-15.03-8.24-28.5-7.67-15.74.73-26.6,5.6-33.93,11.94-12.71,10.97-14.96,26.38-13.97,32.91.85,5.61,1.61,10.58,1.08,15.11-.37,3.18-1.39,6.12-3.5,8.91-.41.54-.31,1.3.23,1.71.53.41,1.3.31,1.71-.23,2.43-3.15,3.63-6.48,4.1-10.09.6-4.73-.1-9.94-.92-15.81-.85-6.03,1.47-20.15,13.24-30.23,6.97-5.97,17.24-10.51,32.12-11.2,12.54-.63,20.97,2.39,26.63,6.83,11.76,9.24,11.5,24.48,11.5,24.48-.02.68.52,1.24,1.2,1.26.68.02,1.24-.52,1.25-1.2Z"/>
  <path class="cls-5" d="m348.35,225.45s-5.81,2.58-11.96,7.88c-3.3,2.84-6.7,6.47-9.36,10.88-2.46,4.08-4.36,9.18-4.92,14.53-.53,5.08.15,10.37,2.65,15.24,1.55,3.02,3.56,5.17,5.38,7.21,1.24,1.39,2.39,2.71,3.17,4.29,1.02,2.08,1.33,4.61.39,8.35-1,4.03-3.12,7.92-4.86,12.24-1.63,4.05-2.95,8.45-2.91,13.59.04,5.05,1.39,10.83,5.1,17.69,6.24,11.47,18.11,20.02,31.77,22.19,11.86,1.89,25.08-1.01,37.07-11,.52-.43.59-1.2.17-1.72-.43-.52-1.2-.59-1.72-.16-11.39,9.34-23.88,12.03-35.07,10.16-12.75-2.12-23.8-10.13-29.57-20.89-3.4-6.33-4.66-11.63-4.68-16.28-.03-5.74,1.82-10.47,3.72-14.85,1.53-3.52,3.1-6.83,3.94-10.22,1.15-4.67.63-7.83-.65-10.42-.91-1.82-2.22-3.36-3.66-4.95-1.69-1.86-3.56-3.8-5-6.56-2.26-4.33-2.87-9.06-2.43-13.61.48-4.93,2.19-9.65,4.43-13.43,2.47-4.18,5.64-7.62,8.73-10.32,5.8-5.08,11.28-7.59,11.28-7.59.62-.28.89-1.01.62-1.63-.28-.62-1.01-.9-1.62-.62Z"/>
  <path class="cls-5" d="m466.6,172.81l-27.2-17.22c-.67-.42-1.55-.25-2.02.39,0,0-3.96,5.32-9.85,12.38-3.06,3.66-6.63,7.8-10.45,11.89-4.89,5.21-10.18,10.35-15.36,14.32-.54.41-.65,1.17-.24,1.71.4.54,1.17.65,1.71.24,5.35-3.95,10.86-9.08,15.94-14.32,3.94-4.07,7.62-8.2,10.74-11.88,4.38-5.19,7.68-9.49,9.13-11.43l26.31,16.01c.58.36,1.34.18,1.69-.4.36-.58.18-1.34-.39-1.69Z"/>
  <path class="cls-5" d="m405.57,197.37s-4.47-2.25-8.54-1.7c-2.09.28-4.05,1.27-5.41,3.41-1.02,1.63-1.4,3.61-1.15,5.58.35,2.62,1.8,5.25,4.2,6.99,2.93,2.11,7.28,2.98,12.72.66.62-.25.93-.97.68-1.59-.25-.63-.96-.93-1.59-.68-4.37,1.66-7.79,1.01-10.05-.73-1.67-1.29-2.66-3.16-2.89-5.03-.16-1.27.02-2.55.66-3.61.79-1.35,2-1.96,3.27-2.19,3.31-.58,7.04,1.12,7.04,1.12.61.29,1.35.04,1.64-.57.29-.61.04-1.35-.58-1.64Z"/>
  <path class="cls-5" d="m398.36,203.55s.72.47,1.6.99c.19.11.39.21.6.32.19.1.39.17.59.27.33.17.69.25.86.47.35.58,1.1.77,1.68.42.58-.35.76-1.1.42-1.68-.26-.62-.85-1.24-1.57-1.8-.22-.18-.47-.35-.72-.48-.35-.18-.7-.32-1.03-.43-.92-.29-1.62-.39-1.62-.39-.65-.22-1.35.12-1.56.77-.22.64.12,1.34.77,1.56Z"/>
  <path class="cls-5" d="m404.83,212.69s.84,3.59,2.06,8.41c.65,2.56,1.39,5.48,2.18,8.38.46,1.69.95,3.38,1.42,5,1.83,6.36,3.42,11.63,3.42,11.63.18.65.85,1.04,1.5.86.65-.18,1.04-.85.86-1.5,0,0-1.29-5.35-2.93-11.76-.42-1.63-.85-3.33-1.31-5.03-.79-2.9-1.62-5.79-2.36-8.33-1.39-4.77-2.47-8.3-2.47-8.3-.18-.66-.85-1.04-1.51-.87-.65.18-1.05.85-.86,1.51Z"/>
  <path class="cls-5" d="m464.36,175.06s1.33,11.07,1.68,21.26c.19,5.53.12,10.8-.71,13.78-.69,2.51-2.73,4.55-5.08,6.23-5.2,3.71-12.07,5.57-12.07,5.57-.64.17-1.08.76-1.05,1.43l1.04,19.2c.02.67.6,1.2,1.27,1.17.68-.03,1.2-.6,1.17-1.27l-.62-18.1c2.28-.68,7.68-2.49,12.01-5.52,2.98-2.08,5.43-4.75,6.3-7.9.85-3.19.95-8.81.65-14.71-.52-10.3-2.15-21.46-2.15-21.46-.08-.67-.71-1.15-1.38-1.06-.68.09-1.15.71-1.06,1.38Z"/>
  <path class="cls-5" d="m419.48,185.71s.32,2.05,1.16,3.98c.42.96,1,1.88,1.69,2.55,1.04,1.01,2.35,1.48,3.88,1.14,1.97-.53,3.09-1.79,3.6-3.38.67-2.04.28-4.64.07-6.1-.07-.67-.67-1.16-1.34-1.09-.68.07-1.16.67-1.09,1.34.06,1.02.2,2.71-.15,4.19-.22.95-.69,1.81-1.82,2.05-.44.11-.8-.07-1.11-.35-.33-.29-.63-.66-.89-1.06-1.05-1.66-1.61-3.76-1.61-3.76-.14-.67-.79-1.1-1.45-.96-.66.13-1.09.78-.95,1.45Z"/>
  <path class="cls-5" d="m450.32,181.61s.12,1.84.65,3.67c.26.9.65,1.78,1.12,2.48.84,1.22,2.02,1.89,3.43,1.77,1.89-.25,3.15-1.3,3.83-2.86.71-1.63.77-3.86.41-5.92-.09-.67-.71-1.14-1.37-1.05-.67.09-1.15.7-1.05,1.37.11,1.29.02,2.65-.35,3.76-.29.87-.81,1.57-1.78,1.64-.22.03-.37-.11-.52-.27-.32-.34-.6-.8-.82-1.3-.75-1.64-1.09-3.57-1.09-3.57-.08-.67-.69-1.16-1.36-1.08-.68.08-1.16.69-1.09,1.36Z"/>
  <path class="cls-5" d="m446.43,194.46c-.35.24-.82.39-1.32.51-1.52.37-3.17.44-3.17.44-.68-.03-1.25.5-1.27,1.17-.03.67.5,1.24,1.17,1.27,0,0,1.97.2,3.82-.07,1.1-.16,2.14-.54,2.84-1.06.91-.74,1.22-2.07.66-3.59-.23-.64-.6-1.34-1.02-1.97-.87-1.33-1.89-2.44-1.89-2.44-.42-.53-1.19-.62-1.72-.2-.53.42-.62,1.2-.2,1.73,0,0,.79,1.19,1.42,2.5.2.4.37.82.5,1.21.05.14.14.35.18.5Zm0,.01c-.08.07-.13.14-.05.16.08.02.08-.05.05-.16Z"/>
  <path class="cls-5" d="m436.32,205.22s1.26.13,3.08.14c.92,0,1.98-.01,3.08-.12.61-.06,1.22-.15,1.84-.27,1.54-.28,3.04-.68,4.3-1.18.64-.21.99-.9.78-1.54-.21-.64-.9-.99-1.54-.78-1,.26-2.16.39-3.36.51-1.09.12-2.2.18-3.24.28-2.71.26-4.91.49-4.91.49-.68,0-1.24.54-1.25,1.22,0,.68.54,1.24,1.22,1.24Z"/>
  <path class="cls-5" d="m434.74,204.49s1.29,5.11,4.13,7.98c1.7,1.71,3.91,2.63,6.54,1.87,2-.64,3.21-2.38,3.74-4.53.82-3.31.1-7.48.1-7.48-.09-.67-.72-1.13-1.38-1.03-.67.1-1.13.72-1.04,1.38,0,0,.4,3.58-.44,6.37-.33,1.08-.82,2.08-1.86,2.36-1.44.44-2.62-.17-3.6-1.08-2.49-2.32-3.83-6.51-3.83-6.51-.19-.65-.87-1.03-1.52-.85-.65.18-1.03.87-.85,1.52Z"/>
  <path class="cls-5" d="m371.18,120.9l2.7-13.77c1.62-1.19,7.44-5.53,11.28-9.48,1.31-1.35,2.39-2.66,3.04-3.8.55-.95.81-1.83.81-2.56,0-1.83-.52-3.3-1.43-4.21-.76-.76-1.81-1.2-3.21-1.15-1.14.05-2.59.46-4.36,1.44-1.23.68-2.66,1.64-4.27,2.93.5-2.9,1.1-6.8,1.37-10.08.17-2.12.19-4,0-5.25-.12-.76-.34-1.34-.59-1.73-.94-1.39-2.39-2.28-3.95-1.99-.99.18-2.14.86-3.22,2.5-1.47,2.24-3.01,6.57-4.16,14.3-.11.67.35,1.29,1.02,1.4.66.11,1.29-.35,1.4-1.02.92-5.56,1.99-9.24,3.08-11.58.55-1.16,1.08-1.96,1.61-2.46.34-.32.64-.49.93-.44.42.06.72.44.98.83.19.3.2.9.22,1.66.04,1.48-.13,3.44-.39,5.51-.69,5.61-2.06,11.99-2.06,11.99-.13.65.17,1.3.74,1.63.57.33,1.29.25,1.78-.2,3.78-3.45,6.59-5.34,8.65-6.08,1-.36,1.72-.48,2.2-.14.55.39.65,1.19.65,2.14,0,.43-.3.94-.69,1.53-.84,1.29-2.2,2.77-3.73,4.25-4.23,4.09-9.72,8.15-9.72,8.15-.28.21-.48.51-.54.86l-2.54,14.36c-.12.67.32,1.31.99,1.43.67.12,1.31-.32,1.43-.98Z"/>
  <path class="cls-5" d="m460.58,244.43c2.78-11.92,7.3-27.9,12.07-43.97,9.52-32.08,20.08-64.47,20.37-65.35l11.87-33.59c.13-.36.11-.77-.06-1.12,0,0-2.83-6.09-4.55-11.63-.62-2.01-1.1-3.94-1.21-5.45-.05-.72-.06-1.31.15-1.7.47-.86.95-1.55,1.63-1.66.59-.1,1.16.33,1.87,1.12,1.42,1.6,2.94,4.57,4.54,9.37.19.57.72.95,1.31.94.6,0,1.12-.4,1.29-.97,0,0,1.88-6.24,3.97-11.51.78-1.94,1.58-3.75,2.31-5.03.4-.69.71-1.22,1.04-1.4.42-.24.89-.43,1.28-.28.28.11.46.41.6.89.2.7.27,1.66.16,2.95-.2,2.57-1.07,6.28-2.93,11.55-.23.63.1,1.33.74,1.56.63.23,1.34-.1,1.56-.74,2.62-7.25,3.37-11.75,3.18-14.4-.18-2.61-1.27-3.77-2.41-4.21-1.04-.4-2.3-.2-3.43.41-.39.21-.84.61-1.29,1.21-.75,1-1.61,2.66-2.46,4.59-1.38,3.13-2.76,7-3.71,9.82-1.91-4.69-3.78-7.13-5.39-8.08-1.16-.69-2.27-.77-3.27-.44-1.17.38-2.26,1.41-3.1,2.94-.34.62-.52,1.49-.52,2.54,0,1.3.29,2.94.74,4.73,1.32,5.19,4.11,11.65,4.96,13.57l-11.78,33.01s-.01.02-.02.04c0,0-10.67,32.91-20.15,65.53-4.69,16.15-9.07,32.23-11.77,44.21-.15.66.26,1.32.93,1.48.66.15,1.32-.26,1.48-.92Z"/>
  <path class="cls-5" d="m368.91,81.52s1.2-4.81.51-7.99c-.38-1.76-1.35-3.03-2.86-3.49-2.05-.58-4.23.19-5.83,4.1-1.07,2.62-1.94,6.9-2.63,13.36-.08.67.38,1.28,1.05,1.37.67.09,1.29-.38,1.37-1.05.75-4.85,1.57-8.37,2.4-10.85.55-1.67,1.09-2.81,1.7-3.52.35-.42.7-.62,1.12-.5.28.07.47.29.61.57.23.44.36.99.44,1.57.36,2.62-.27,5.9-.27,5.9-.15.66.26,1.32.92,1.47.66.15,1.32-.26,1.47-.93Z"/>
  <path class="cls-5" d="m520.82,81.56s.8-2.46,2.06-4.52c.4-.67.86-1.29,1.36-1.75.33-.3.67-.55,1.07-.45.39.09.56.43.66.95.17.91.08,2.17-.24,3.9-.48,2.57-1.45,6.03-3.1,10.62-.24.63.07,1.34.7,1.58.63.25,1.34-.07,1.58-.7,2.47-5.96,3.76-10.1,4.11-12.89.52-4.26-1.03-5.97-3.08-6.41-1.52-.3-2.98.38-4.15,1.77-2.09,2.48-3.33,7.23-3.33,7.23-.19.65.19,1.33.84,1.52.65.19,1.34-.19,1.52-.85Z"/>
  <path class="cls-5" d="m361.79,79.23s.58-2.29.57-4.6c0-1.2-.18-2.4-.6-3.35-.64-1.44-1.79-2.39-3.69-2.37-.95,0-1.88.45-2.73,1.35-.92.97-1.81,2.56-2.57,4.61-1.51,4.03-2.66,9.91-3.38,15.74-.37,3.29-1.03,7.58-1.74,11.88-1.46,8.91-3.15,17.82-3.15,17.82-.14.66.29,1.31.95,1.44.65.13,1.3-.29,1.44-.95,0,0,1.95-8.9,3.59-17.81.8-4.34,1.52-8.68,1.94-12.01.54-4.67,1.36-9.36,2.42-13.05.65-2.28,1.37-4.17,2.22-5.35.35-.5.65-.9,1.06-.92.9-.03,1.25.66,1.44,1.44.55,2.31-.18,5.55-.18,5.55-.15.66.25,1.32.91,1.48.66.16,1.32-.25,1.49-.91Z"/>
  <path class="cls-5" d="m528,82.81s.92-3.17,2.48-4.96c.53-.61,1.15-1.08,1.89-.64.13.08.19.22.25.37.11.26.17.57.2.93.16,1.44-.13,3.43-.67,5.74-.85,3.73-2.38,8.22-4.13,12.56-1.22,3.12-2.68,7.27-4.06,11.46-2.83,8.61-5.4,17.33-5.4,17.33-.2.65.16,1.33.8,1.53.65.2,1.33-.16,1.53-.81,0,0,2.81-8.61,5.8-17.12,1.44-4.1,2.92-8.19,4.17-11.25,2.15-5.44,3.96-11.12,4.59-15.35.32-2.15.34-3.95.01-5.24-.3-1.23-.91-2.07-1.73-2.53-1.65-.91-3.11-.6-4.36.41-2.36,1.91-3.75,6.93-3.75,6.93-.18.66.2,1.33.86,1.51.65.18,1.33-.2,1.51-.86Z"/>
  <path class="cls-5" d="m345.83,121.95l22.71.1c-.45,5.64-2.1,26.54-3.03,42.53-.54,9.35-.81,17.04-.53,19.15.11.81.72,2.53,1.79,4.89,1.82,4.04,4.94,10.18,8.63,17.13,11.03,20.77,27,48.73,27,48.73.26.46.78.71,1.3.62l7.46-1.27c.66-.11,1.12-.74,1.01-1.4-.12-.67-.74-1.12-1.41-1.01l-6.6,1.06c-2.57-4.62-16.3-29.33-26.12-48.13-3.61-6.9-6.69-12.99-8.48-16.99-.88-1.96-1.45-3.36-1.54-4.04-.27-2.05.04-9.51.52-18.58.99-18.63,2.81-43.94,2.81-43.94.02-.38-.1-.75-.36-1.03-.25-.28-.62-.43-.99-.43l-24.18.15c-.69,0-1.23.55-1.23,1.23s.55,1.23,1.23,1.23Z"/>
  <path class="cls-5" d="m344.6,119.53s-4.94,21.72-7.12,42.37c-1.17,11.09-1.52,21.87.05,28.89,3.53,15.77,9.84,30.96,17.02,44.7,15.63,29.88,35.38,52.8,39.1,59.65,3.1,5.68,5.06,16.33,6.35,27.64,2.36,20.59,2.42,43.38,2.42,43.38,0,.43.19.83.52,1.1.33.27.77.38,1.19.3l97.84-19.26c.66-.13,1.1-.77.97-1.43-.13-.66-.77-1.1-1.43-.97l-96.22,18.52c-.05-5.72-.35-24.62-2.29-41.98-1.32-11.78-3.43-22.85-6.65-28.77-3.73-6.84-23.46-29.75-39.15-59.57-7.11-13.5-13.39-28.42-16.92-43.93-1.56-6.8-1.2-17.25-.12-28,2.07-20.51,6.86-42.1,6.86-42.1.15-.66-.27-1.32-.93-1.47-.66-.15-1.32.27-1.47.93Z"/>
  <path class="cls-5" d="m502.83,346.55s-9.68-18.94-15.58-38.3c-2.93-9.57-4.94-19.24-4.31-26.71.91-10.92,4.58-27.93,9.26-46.78,3.48-13.99,7.51-28.98,11.42-43.25,8.61-31.26,16.69-59.02,17.34-65.08.07-.62-.31-1.19-.9-1.38l-21.67-6.65c-.65-.2-1.33.16-1.53.81-.2.64.16,1.33.81,1.53l20.57,6.45c-1.34,7.7-9.22,34.02-17.47,63.52-4,14.27-8.08,29.28-11.55,43.3-4.72,19.04-8.31,36.25-9.18,47.28-.62,7.78,1.48,17.83,4.57,27.76,6.1,19.53,16.04,38.61,16.04,38.61.31.6,1.05.84,1.66.53.61-.31.84-1.05.53-1.66Z"/>
  <path class="cls-5" d="m415.97,245.02c-.62-.27-1.33,0-1.61.61,0,0-3.4,7.13-3.4,7.13-.18.4-.15.87.08,1.25l10.29,16.76c.24.38.64.63,1.08.69.45.06.89-.09,1.22-.39,0,0,3.8-3.5,7.58-7.03,3.78-3.53,7.52-7.09,7.52-7.09.37-.34.54-.85.45-1.34-.08-.5-.42-.92-.88-1.12l-22.34-9.46h0Zm.12,2.74l18.95,8.52c-1.46,1.35-3.7,3.42-5.93,5.5-2.4,2.25-4.8,4.51-6.22,5.85,0,0-9.25-14.44-9.25-14.44l2.45-5.43Z"/>
  <path class="cls-5" d="m438.64,254.4c-.25.29-.34.68-.26,1.05.08.37.34.68.68.84,0,0,14.19,6.9,14.19,6.9.38.18.84.18,1.22,0,.38-.18.67-.53.78-.94l4.38-16.6c.11-.41.04-.84-.18-1.2-.22-.36-.59-.61-1-.69l-8.87-1.68c-.52-.1-1.06.09-1.4.5l-9.53,11.81h0Zm2.93.34l8.26-9.64,6.44,1.34-3.39,13.43-11.31-5.13Z"/>
  <path class="cls-5" d="m423.63,269.72s9.57,14.67,16.57,25.29c4,6.06,7.17,10.79,7.17,10.79.35.53,1,.79,1.62.64.62-.14,1.09-.65,1.18-1.28,0,0,.79-5.63,1.76-12.8,1.69-12.57,3.96-29.89,3.96-29.89.09-.67-.38-1.29-1.05-1.38-.66-.09-1.29.37-1.38,1.04,0,0-2.62,17.26-4.47,29.81-.51,3.44-.96,6.54-1.29,8.81-1.29-1.92-3.03-4.52-5-7.43-7.14-10.54-17.03-24.99-17.03-24.99-.38-.56-1.15-.72-1.71-.34-.56.38-.72,1.14-.34,1.71Z"/>
  <path class="cls-5" d="m404.46,367.35s-.63,7.42-.21,16.69c.24,5.28.82,11.16,2.04,16.62,1.22,5.45,4.3,15.74,7.73,26.62,4.12,13.1,8.74,27.04,11.16,34.31,0,0-42.67-37.53-42.67-37.53-.55-.48-1.36-.51-1.94-.06,0,0-4.74,3.69-8.4,8.2-1.86,2.28-3.41,4.78-4.05,7.12-.12.46-.02.96.26,1.34,0,0,16.42,21.42,32.43,39.61,9.51,10.82,18.91,20.48,24.67,24,8.41,5.13,18.39,5.3,25.93-1.24,6.94-6.02,11.88-17.95,11.13-37.44-.47-12.33-1.09-23.27-1.7-32.5-1.13-16.76-2.28-27.86-2.66-31.3l8.91-1.71c.66-.13,1.1-.77.98-1.43-.13-.66-.77-1.1-1.43-.97l-10.04,1.9c-.64.12-1.08.71-1,1.36,0,0,1.35,11.97,2.63,32.33.58,9.2,1.15,20.12,1.57,32.43.64,18.28-3.74,29.54-10.27,35.16-6.56,5.66-15.23,5.37-22.51.89-5.6-3.44-14.68-12.93-23.93-23.49-14.3-16.31-28.96-35.18-31.79-38.84.64-1.77,1.86-3.59,3.24-5.29,2.45-3.03,5.42-5.67,6.92-6.93,0,0,45.83,40.09,45.83,40.09.49.43,1.22.48,1.76.11.54-.36.78-1.04.56-1.66,0,0-7.01-20.51-13-39.29-3.43-10.77-6.54-20.97-7.78-26.37-1.22-5.3-1.8-11.02-2.06-16.16-.45-9.09.12-16.37.12-16.37.06-.68-.45-1.27-1.12-1.33-.68-.06-1.27.45-1.32,1.13Z"/>
  <path class="cls-5" d="m498.75,348.65s3.82,7.46,7.6,19.91c1.79,5.9,3.57,12.93,4.93,20.81,1.33,7.7,2.49,16.97,3.46,26.07,2.14,20.08,3.36,39.38,3.36,39.38.04.68.54,1.24,1.21,1.35.67.12,1.33-.24,1.6-.86l20.85-47.47c1.42-.03,4.42.07,7.72,1.21,2.19.76,4.51,1.97,6.58,3.93-.69,1.99-2.43,7.07-4.6,13.76-1.42,4.37-3.03,9.43-4.64,14.76-1.94,6.41-5.97,20.1-12.79,29.68-4.34,6.1-9.82,10.58-16.76,9.88-7.45-.75-14.25-7.7-20.91-18.45-9.58-15.44-18.61-38.72-27.82-64.03-.22-.63-.92-.96-1.56-.73-.63.23-.96.93-.73,1.56,9.16,25.55,18.18,49.05,27.77,64.65,7.21,11.73,14.86,19.01,22.96,19.85,7.98.83,14.43-4.02,19.45-11.02,7.07-9.85,11.29-23.92,13.3-30.51,1.62-5.31,3.23-10.35,4.65-14.7,2.83-8.66,4.92-14.6,4.92-14.6.19-.55.06-1.15-.34-1.57-2.62-2.74-5.64-4.38-8.47-5.36-5.29-1.82-9.91-1.3-9.91-1.3-.55.06-1.02.41-1.24.91l-18.73,42.91c-.55-7.27-1.61-20.23-3.08-33.53-1.01-9.16-2.22-18.49-3.59-26.23-1.42-7.99-3.26-15.11-5.11-21.1-3.92-12.69-7.87-20.29-7.87-20.29-.32-.6-1.05-.84-1.66-.53-.6.31-.84,1.05-.52,1.66Z"/>
  <path class="cls-5" d="m406.13,448.35s-1.45,2.1-3.33,4.98c-1,1.53-2.13,3.27-3.22,5.04-.64,1.03-1.25,2.08-1.84,3.08-2.32,3.95-4.18,7.26-4.18,7.26-.35.57-.18,1.33.4,1.68.57.35,1.32.18,1.68-.4,0,0,2.12-3.15,4.62-6.99.64-.98,1.29-1.99,1.93-3.02,1.09-1.77,2.14-3.56,3.06-5.14,1.73-2.97,2.96-5.2,2.96-5.2.36-.58.18-1.34-.4-1.69-.58-.36-1.33-.18-1.69.4Z"/>
  <path class="cls-5" d="m528.69,435.98s1.88,1.14,4.45,2.61c1.37.78,2.93,1.67,4.5,2.51.92.49,1.86.96,2.76,1.4,3.53,1.76,6.49,3.16,6.49,3.16.6.32,1.34.09,1.66-.5.32-.6.09-1.34-.5-1.65,0,0-2.82-1.67-6.25-3.62-.87-.49-1.78-1.01-2.7-1.5-1.58-.84-3.19-1.64-4.6-2.34-2.66-1.31-4.65-2.24-4.65-2.24-.59-.32-1.34-.09-1.66.51-.32.6-.09,1.34.51,1.66Z"/>
  <path class="cls-2" d="m440.51,262.65c2.2,0,3.99,1.82,3.99,4.05s-1.79,4.05-3.99,4.05-3.99-1.82-3.99-4.05,1.79-4.05,3.99-4.05Z"/>
  <path class="cls-2" d="m442.81,275.31c2.2,0,3.99,1.82,3.99,4.05s-1.79,4.05-3.99,4.05-3.99-1.82-3.99-4.05,1.79-4.05,3.99-4.05Z"/>
  <path class="cls-5" d="m428.72,178.41s-.98-.73-2.5-1.16c-.82-.23-1.79-.36-2.81-.23-.55.07-1.12.22-1.69.47-1.05.47-2.1,1.23-3.02,2.47-.44.51-.38,1.28.12,1.72.51.44,1.29.39,1.72-.12,1.07-1.08,2.22-1.38,3.24-1.5.66-.07,1.28-.08,1.82,0,1.08.16,1.85.45,1.85.45.58.35,1.33.16,1.69-.42.35-.58.16-1.34-.42-1.69Z"/>
  <path class="cls-5" d="m450.84,177.54s.92-.68,2.22-1.16c.45-.16.95-.31,1.51-.36.76-.08,1.62-.07,2.56.38.59.34,1.33.15,1.68-.43.34-.58.15-1.33-.44-1.67-1.17-.83-2.34-1.18-3.43-1.27-.57-.05-1.12,0-1.62.1-.92.19-1.74.59-2.39,1.03-1.21.81-1.89,1.71-1.89,1.71-.46.5-.43,1.28.07,1.74.5.46,1.28.43,1.74-.07Z"/>
  <path class="cls-5" d="m620.14,213.1s2.84-9.85,23.34-11.06c0,0,18.95-1.44,33,5.24,14.06,6.67,15.6,12.58,16.44,19.05.83,6.48.8,12.02.8,12.02,0,0-6.61-1.61-11.89,3.09,0,0-5.3-1.08-5.98-9.59-.69-8.52-1.93-14.11-7.47-14.03-5.54.08-43.49-2.51-48.25-4.73Z"/>
  <path class="cls-5" d="m713.3,391.51c-14.21-4.44-17.4-13.55-17.4-13.55l-60.28-.33c-.61,2.53-3.54,7.32-3.54,7.32-4.26,6.92-14.09,10.01-14.09,10.01,0,0,11.33,167.19,10.1,176.78-1.87,14.58-3.96,19.61-17.06,26.29-6.63,3.38-2.59,14.37,8.65,8.77,8.44-4.2,21.02-11.67,24.13-26.16l3.8,8.43,12.23-7.83-6.7-20.99s11.69-106.48,14.46-131.57c0,0,8.34,66.56,33.37,69.14,21.72,2.25,45.17-55.54,45.17-55.54,0,0,3.46-.76,9.48.94,11.01,3.11,12.81,10.47,16.61,6.43,4-4.26-2.41-11.22-9.95-16.64-8.24-5.93-14.23-5.04-15.78-4.97l3.23-6.99-11.36-7.04-26.42,41.84s3.06-63.84,1.36-64.37Z"/>
  <path class="cls-5" d="m713.67,390.34c-4.18-1.31-7.37-3.04-9.78-4.81-5.33-3.9-6.81-7.98-6.81-7.98-.18-.5-.65-.84-1.18-.84l-60.28-.39c-.61,0-1.15.41-1.29,1.01-.18.77-.62,1.77-1.1,2.76-1.01,2.07-2.25,4.1-2.29,4.17-1.47,2.39-3.66,4.27-5.83,5.72-3.79,2.53-7.53,3.71-7.53,3.71-.59.19-.98.75-.93,1.37,0,0,4.78,71.54,7.75,123.7,1.56,27.44,2.64,49.49,2.22,52.79-.9,6.95-1.8,11.66-4.06,15.41-2.28,3.77-5.94,6.53-12.22,9.73-4.93,2.51-5.16,8.34-1.72,11.34,2.25,1.96,6.25,2.84,11.72.12,4.7-2.34,10.63-5.67,15.6-10.58,3.4-3.37,6.35-7.47,8.17-12.5,0,0,2.09,4.63,2.09,4.63.18.41.53.71.95.84.43.13.89.06,1.26-.18l12.24-7.83c.59-.37.84-1.1.63-1.76l-6.6-20.68c.64-5.87,9.85-89.9,13.19-120.34,2.22,11.72,6.65,30.44,14.07,43.65,4.92,8.76,11.21,15.08,18.85,15.86,6.75.69,13.74-3.92,20.13-11.01,13.27-14.75,24.22-40.02,26.18-44.69.7-.06,1.93-.1,3.63.1,1.25.15,2.76.42,4.48.91,5.03,1.42,8.04,3.77,10.22,5.41,1.08.81,1.98,1.46,2.8,1.83.77.34,1.5.47,2.22.38.87-.12,1.77-.56,2.73-1.58,1.97-2.1,2.05-4.71.7-7.53-1.74-3.64-6.06-7.71-10.85-11.16-2.89-2.08-5.53-3.35-7.81-4.13-2.78-.95-5.04-1.16-6.63-1.17l2.31-5c.28-.61.06-1.34-.52-1.7l-11.36-7.03c-.62-.38-1.43-.2-1.82.42l-23.81,37.78c.43-9.82,1.38-32.38,1.57-46.76.08-5.45.04-9.74-.17-11.74-.08-.82-.24-1.36-.37-1.59-.23-.42-.54-.59-.79-.67h0Zm-1.34,2.15c.06.48.15,1.35.18,2.22.22,5.45-.08,17.18-.5,28.91-.57,16.09-1.35,32.19-1.35,32.19-.02.58.34,1.1.89,1.28.55.17,1.15-.05,1.46-.54l25.76-40.71,9.24,5.74-2.74,5.91c-.2.42-.16.92.1,1.31.26.39.7.61,1.17.6.97-.04,3.79-.43,7.84.96,2.07.71,4.46,1.88,7.09,3.78,3.65,2.63,7.03,5.61,8.99,8.47,1.59,2.3,2.3,4.46.74,6.12-.4.42-.72.69-1.09.74-.25.03-.48-.05-.73-.16-.97-.44-2.05-1.37-3.5-2.44-2.27-1.67-5.33-3.66-9.91-4.96-2.37-.67-4.36-.98-5.92-1.1-2.74-.21-4.23.13-4.23.13-.45.1-.82.41-.99.84,0,0-9.2,22.63-21.39,38.89-3.82,5.1-7.92,9.56-12.14,12.46-3.37,2.32-6.81,3.62-10.2,3.27-3.83-.4-7.22-2.47-10.24-5.57-3.87-3.98-7.12-9.66-9.84-15.95-8.67-20.04-11.96-46.36-11.96-46.36-.09-.76-.74-1.32-1.5-1.32-.76,0-1.4.58-1.48,1.34l-14.5,131.56c-.02.21,0,.43.06.64l6.35,19.86-9.75,6.24-3.07-6.81c-.27-.6-.9-.96-1.56-.89-.65.07-1.19.55-1.33,1.2-1.35,6.32-4.6,11.23-8.5,15.09-4.7,4.67-10.35,7.81-14.8,10.03-3.92,1.95-6.78,1.72-8.39.31-1.95-1.7-1.69-4.97,1.1-6.39,6.94-3.55,10.9-6.7,13.4-10.87,2.43-4.04,3.49-9.08,4.44-16.57.42-3.33-.65-25.62-2.27-53.34-2.83-48.54-7.28-113.84-7.89-122.71,1.46-.55,4.33-1.76,7.21-3.69,2.46-1.65,4.93-3.83,6.6-6.55,0,0,0,0,0,0,0,0,1.33-2.18,2.4-4.4.38-.78.72-1.57.98-2.28l58.49.26c.75,1.55,2.8,5.01,7.34,8.32,2.49,1.81,5.72,3.58,9.92,4.96Z"/>
  <path class="cls-5" d="m640.02,280.3s4.81,2.84,9.65,5.64c3.17,1.84,6.36,3.66,8.17,4.69l-6.64,8.83-9.68-6.64c-.55-.39-1.31-.26-1.7.29-.39.55-.26,1.31.29,1.7l10.58,7.76c.63.44,1.49.31,1.96-.3l8.68-11.18c.27-.35.37-.81.28-1.24-.09-.44-.37-.81-.75-1.03,0,0-4.89-2.71-9.8-5.37-4.91-2.67-9.84-5.29-9.84-5.29-.59-.33-1.34-.12-1.67.47-.33.59-.12,1.34.47,1.68Z"/>
  <path class="cls-1" d="m686.92,261.8s4.61,3.06,8.75,7.06c1.57,1.52,3.08,3.18,4.22,4.86,0,0-5.77,9.31-5.77,9.31-.32.52-.28,1.19.09,1.67l10.15,13.28c-.67,2.08-2.63,8.18-4.93,15.44-2.54,7.98-5.5,17.37-7.72,24.33-1.8,5.65-3.09,9.67-3.22,9.93-.31.6-.08,1.34.52,1.65.6.31,1.34.07,1.65-.52.22-.41,3.39-9.75,6.91-20.33,4.67-14.06,9.98-30.32,9.98-30.32.15-.48.06-1.01-.25-1.41l-10.14-13.05,5.58-9.26c.28-.45.27-1.02,0-1.47-1.32-2.08-3.22-4.17-5.23-6.04-4.38-4.09-9.25-7.18-9.25-7.18-.57-.37-1.33-.21-1.7.36-.37.57-.21,1.33.36,1.7Z"/>
  <path class="cls-1" d="m746.44,386.28c-.05.1-.35.64-.75,1.03-1.29,1.21-3.88,2.5-8.58,3.21-4.34.65-10.37.78-18.68-.17-8.3-.94-13.86-4.17-17.64-8.55-7.19-8.32-8.15-20.6-9.51-29.07-.65-4.06-1.2-12.69-1.68-22.72-1.08-23.05-1.69-53.49-1.69-53.49-.02-.68-.57-1.22-1.25-1.21-.68.01-1.22.57-1.21,1.25,0,0,.39,30.48,1.35,53.58.42,10.18.95,18.93,1.59,23.05,1.4,8.93,2.55,21.82,10.09,30.6,4.21,4.89,10.36,8.56,19.61,9.62,10.96,1.24,18.14.66,22.75-.53,4.16-1.07,6.38-2.67,7.47-3.95.96-1.13,1.19-2.17,1.15-2.78-.12-1.7-1.19-2.74-2.93-3.51-1.69-.75-4.23-1.22-6.14-3.1-1.18-1.15-2.09-2.85-2.42-5.49-.24-1.87-.38-13.07-.49-26.96-.22-26.71-.26-63.32-.26-63.32,0-.67-.54-1.22-1.22-1.22-.68,0-1.22.55-1.22,1.22,0,0-.18,36.62-.12,63.34.04,14.07.15,25.41.38,27.31.43,3.51,1.7,5.74,3.26,7.26,1.88,1.85,4.22,2.64,6.1,3.35.63.24,1.19.45,1.62.75.21.14.38.29.42.52Z"/>
  <path class="cls-5" d="m631.25,270.55s-2.55,2.66-4.7,5.03c-1.63,1.8-3.03,3.43-3.03,3.43-.43.5-.49,1.22-.15,1.79l5.3,8.3c.35.58,1.1.77,1.68.42.58-.35.77-1.1.42-1.68l-4.23-7.63c.55-.65,1.39-1.63,2.26-2.68,2.04-2.46,4.31-5.36,4.31-5.36.45-.51.38-1.29-.12-1.74-.52-.44-1.29-.39-1.74.12Z"/>
  <path class="cls-5" d="m628.77,288.08l-9.19,14.1c-.23.36-.29.8-.18,1.21,0,0,.86,3.18,2.14,7.5.99,3.36,2.25,7.4,3.45,11.18,1.95,6.13,3.83,11.58,4.42,12.53.35.58,1.1.77,1.68.42.58-.35.77-1.1.42-1.68-.33-.57-1.04-2.84-1.96-5.88-1.3-4.28-2.92-10.05-4.33-14.94-1.25-4.3-2.32-7.93-2.75-9.33,0,0,8.39-13.8,8.39-13.8.36-.57.18-1.33-.38-1.7-.58-.36-1.34-.19-1.7.39Z"/>
  <path class="cls-5" d="m638.78,274s-.02,4.75-.03,11.4c0,3.43-.02,7.35,0,11.4.02,3.03.05,6.12.08,9.11.05,5.12.11,9.95.07,13.65-.02,2.07-.06,3.79-.13,5-.05.67.45,1.26,1.12,1.31.67.05,1.26-.45,1.31-1.12.3-3.26.52-10.14.6-17.83.03-2.48.05-5.05.03-7.61-.02-4.43-.12-8.83-.21-12.68-.17-7.31-.38-12.68-.38-12.68-.02-.68-.58-1.22-1.25-1.21-.68.01-1.22.57-1.21,1.25Z"/>
  <path class="cls-5" d="m561.69,177.78c-3.98-7.82-6.94-15-9.22-21.15-1.19-3.19-2.2-6.11-3.03-8.7-2.67-8.29-3.57-13.26-3.57-13.26-.01-.09-.04-.17-.07-.26,0,0-.54-1.38-.3-2.84.12-.72.43-1.47,1.16-2.05.22-.06.66-.15,1.13-.07.32.06.67.19.95.52.43.52,1.2.59,1.72.16.52-.43.6-1.2.17-1.72-.7-.86-1.56-1.25-2.38-1.42-1.37-.27-2.61.18-2.61.18-.1.03-.19.08-.28.14-1.19.79-1.86,1.83-2.23,2.9-.73,2.1-.16,4.35.03,4.97.11.69.91,5.71,3.38,13.65.82,2.65,1.83,5.63,3.08,8.86,2.39,6.21,5.66,13.39,9.89,21.21.31.6,1.06.84,1.66.52.61-.32.84-1.06.52-1.66Z"/>
  <path class="cls-5" d="m556.18,143.2s-.9-2.42-1.96-5.37c-.62-1.73-1.28-3.65-1.87-5.37-.64-1.88-1.21-3.49-1.25-4.31-.05-.83.27-1.48.84-1.79.64-.34,1.47-.34,2.2.13.55.39,1.31.25,1.7-.3.38-.55.25-1.32-.3-1.7-1.53-1.14-3.36-1.2-4.8-.53-1.48.68-2.55,2.19-2.54,4.3,0,.74.27,2.05.73,3.6.29.98.66,2.06,1.07,3.18,1.65,4.37,3.91,9.13,3.91,9.13.27.62.99.92,1.62.65.62-.26.92-.99.66-1.61Z"/>
  <path class="cls-5" d="m575.53,130.41c.55-.16,1.01.26,1.31.82.39.71.56,1.68.39,2.75l-1.5,9.63c-.25,1.62-.42,2.85-.52,3.77-.23,2.08-.16,2.72-.16,2.72.04.68.63,1.18,1.3,1.13.67-.05,1.18-.64,1.13-1.31,0,0-.02-.53.2-2.25.11-.89.3-2.08.58-3.64l1.71-9.62c.37-2.2-.21-4.16-1.19-5.38-1.07-1.34-2.61-1.89-4.22-1.37-.45.14-.96.48-1.48,1.03-.53.56-1.09,1.39-1.65,2.35-.8,1.39-1.59,3.06-2.23,4.52-1.13-2.52-2.74-6.03-4.26-8.86-.93-1.72-1.83-3.2-2.56-4.1-.45-.57-.88-.95-1.22-1.15-1.66-.95-3.28-.97-4.54-.36-1.31.63-2.31,1.94-2.52,3.81-.1.91.4,2.92,1.25,5.23,1.65,4.5,4.45,10.33,4.45,10.33.28.62,1.01.89,1.63.6.62-.29.89-1.02.6-1.63,0,0-2.06-4.59-3.59-8.74-.56-1.51-1.04-2.95-1.32-4.09-.15-.6-.25-1.07-.21-1.36.1-.74.43-1.3.95-1.54.51-.24,1.16-.11,1.82.29.28.16.57.66.98,1.27.75,1.16,1.61,2.79,2.48,4.52,2.35,4.72,4.71,10.29,4.71,10.29.24.58.81.95,1.44.94.63-.01,1.18-.41,1.4-1,0,0,1.31-3.57,2.8-6.5.53-1.03,1.06-1.99,1.58-2.64.16-.2.43-.45.46-.48Z"/>
  <path class="cls-5" d="m574.74,151s.58,1.64,1.42,3.83c.45,1.16.97,2.48,1.53,3.79.33.76.69,1.51,1.03,2.23,1.34,2.83,2.51,5.15,2.51,5.15.27.62.98.91,1.6.64.63-.27.91-.99.64-1.61,0,0-.88-2.44-2.03-5.35-.29-.74-.59-1.51-.92-2.27-.56-1.3-1.17-2.59-1.71-3.71-1.01-2.12-1.81-3.67-1.81-3.67-.27-.62-.99-.91-1.62-.64-.62.27-.91.99-.64,1.62Z"/>
  <path class="cls-1" d="m615.99,228.49l-32.02-63.55c-.19-.37-.53-.65-.93-.76-.41-.11-.84-.05-1.19.17l-22.39,13.77c-.64.39-.9,1.18-.62,1.88l39.92,100.1c.25.63.95.94,1.58.7.63-.24.95-.95.7-1.58-2.27-5.95-8.65-22.34-15.65-40.18-9.82-25.03-20.83-52.92-23.22-58.98l19.87-12.3,31.77,61.85c.31.61,1.05.85,1.66.54.6-.31.84-1.05.53-1.65Z"/>
  <path class="cls-5" d="m661.85,236.2s-.22,2-1.12,3.61c-.44.78-1.06,1.5-2.1,1.47-1.42.02-2.26-.49-2.66-1.38-.52-1.14-.54-2.65-.32-4.1.12-.66-.32-1.3-.98-1.43-.66-.12-1.3.31-1.43.98-.31,1.33-.44,2.71-.31,3.96.11,1.08.46,2.06,1.03,2.87.89,1.26,2.35,2.12,4.66,2.17,1.89-.03,3.24-.95,4.14-2.3,1.51-2.28,1.57-5.73,1.57-5.73.03-.68-.49-1.26-1.17-1.29-.68-.03-1.26.49-1.29,1.17Z"/>
  <path class="cls-5" d="m620.57,230.91s-.91,3.53-.03,6.19c.53,1.62,1.68,2.9,3.68,3.33,2.28.39,3.99-.26,5.21-1.5,1.61-1.65,2.3-4.42,2.19-6.89,0-.67-.56-1.22-1.23-1.21-.68,0-1.22.55-1.22,1.23-.05,1.47-.45,3.07-1.28,4.21-.66.92-1.67,1.44-3.1,1.14-1.08-.18-1.51-1.06-1.72-1.97-.44-1.87-.1-3.99-.1-3.99.15-.66-.26-1.32-.93-1.47-.66-.15-1.32.27-1.47.93Z"/>
  <path class="cls-5" d="m655.24,229.64s.88-.34,2.13-.46c.64-.06,1.35-.02,2.14.13,1.2.23,2.55.73,3.84,2.06.44.51,1.21.57,1.72.13.51-.44.57-1.21.13-1.72-1.02-1.36-2.14-2.25-3.25-2.83-.61-.32-1.23-.53-1.83-.65-1.16-.24-2.27-.17-3.19.03-1.78.38-2.94,1.18-2.94,1.18-.58.34-.78,1.09-.44,1.68.33.59,1.09.79,1.68.45Z"/>
  <path class="cls-5" d="m632.03,224.78s-.89-1.03-2.55-1.78c-.82-.37-1.84-.65-3.01-.66-.57,0-1.19.06-1.83.22-1.15.28-2.39.82-3.69,1.76-.57.36-.75,1.11-.4,1.68.35.57,1.11.75,1.68.4,1.61-.86,3.02-1.01,4.2-.99.78.02,1.45.11,2.02.29,1.14.35,1.85.84,1.85.84.48.47,1.26.46,1.74-.02.47-.49.47-1.27-.02-1.74Z"/>
  <path class="cls-5" d="m636.19,243.57s-.02-.07-.03-.09c0,.03.02.06.03.09,0,.03,0,.05-.02.04-.44-.06.36-1.2.69-2.02.73-1.79,1.66-3.79,1.66-3.79.32-.6.11-1.34-.49-1.67-.6-.33-1.34-.11-1.67.49,0,0-1.55,2.48-2.48,4.44-.34.72-.58,1.38-.69,1.85-.09.37-.09.69-.07.92.22,1.74,1.38,2.67,3.05,2.9,1.04.14,2.33-.02,3.5-.32,1.65-.42,3.05-1.04,3.05-1.04.63-.24.94-.95.7-1.58-.23-.63-.95-.95-1.58-.7,0,0-2.01.64-3.87.75-.47.03-.92,0-1.33-.07-.19-.03-.39-.05-.45-.2Z"/>
  <path class="cls-5" d="m774.26,168.31c3.02-8.24,5.16-15.62,6.58-21.92.75-3.32,1.3-6.35,1.71-9.02,1.24-8.06,1.24-12.97,1.24-13.71.09-.66.32-2.95-.69-4.91-.52-1-1.34-1.94-2.63-2.55-.1-.05-.2-.08-.31-.11,0,0-1.29-.26-2.6.2-.79.28-1.59.8-2.15,1.75-.35.58-.17,1.33.41,1.68.57.35,1.32.16,1.68-.41.23-.37.56-.55.86-.65.45-.14.89-.12,1.13-.09.8.46,1.22,1.16,1.45,1.86.45,1.41.12,2.85.12,2.85-.02.09-.03.19-.03.29,0,0-.08,4.86-1.48,13.32-.43,2.61-.99,5.57-1.68,8.84-1.32,6.22-3.16,13.56-5.92,21.76-.23.64.11,1.34.75,1.57.64.22,1.34-.11,1.57-.75Z"/>
  <path class="cls-5" d="m774.45,134.11s1.54-5.04,2.55-9.6c.25-1.16.45-2.29.6-3.3.23-1.6.3-2.93.2-3.67-.3-2.08-1.57-3.42-3.14-3.88-1.52-.45-3.33-.13-4.68,1.22-.49.46-.51,1.24-.05,1.73.46.49,1.24.52,1.72.06.66-.57,1.48-.69,2.16-.45.61.22,1.02.82,1.09,1.65.08.82-.25,2.49-.61,4.44-.33,1.78-.71,3.78-1.07,5.58-.62,3.07-1.16,5.59-1.16,5.59-.17.66.23,1.33.88,1.5.66.17,1.33-.22,1.5-.88Z"/>
  <path class="cls-5" d="m751.06,123.63s.34.23.53.41c.61.57,1.28,1.44,1.95,2.38,1.9,2.68,3.71,6.02,3.71,6.02.3.55.9.86,1.53.78.63-.08,1.13-.53,1.29-1.14,0,0,1.53-5.86,3.17-10.87.61-1.84,1.23-3.58,1.8-4.84.31-.67.53-1.2.78-1.4.6-.49,1.22-.71,1.76-.55.55.16.95.67,1.16,1.39.08.29.04.77-.01,1.38-.11,1.16-.38,2.66-.71,4.23-.91,4.32-2.28,9.17-2.28,9.17-.2.65.18,1.34.83,1.53.65.19,1.34-.18,1.53-.83,0,0,1.92-6.17,2.9-10.86.51-2.41.71-4.47.48-5.36-.48-1.82-1.66-2.97-3.05-3.4-1.33-.42-2.93-.17-4.44,1.01-.31.25-.68.69-1.05,1.31-.59,1-1.27,2.59-1.94,4.43-1.09,3.02-2.18,6.72-2.93,9.38-.84-1.35-1.86-2.89-2.86-4.15-.69-.87-1.37-1.6-1.98-2.08-.59-.47-1.14-.73-1.61-.81-1.67-.28-3.11.48-3.97,1.96-.8,1.35-1.09,3.37-.4,5.5l3.08,9.27c.5,1.5.86,2.65,1.1,3.51.47,1.67.52,2.2.52,2.2.05.67.64,1.18,1.31,1.13.67-.05,1.18-.63,1.13-1.31,0,0-.03-.65-.55-2.67-.23-.9-.57-2.09-1.06-3.66l-2.88-9.31c-.31-1.03-.29-2.01,0-2.77.22-.6.62-1.08,1.18-1Z"/>
  <path class="cls-5" d="m694.45,237.76c.4-10.51-1.05-18.76-6.34-24.84-5.96-6.85-16.89-11.01-36.05-12.34-13.45-.91-22,1.84-27.45,5.58-9.01,6.19-9.78,15.19-9.84,16.3-.18,1.03-1.62,9.91-1.54,19.72.03,4.46.38,9.11,1.29,13.3,1.63,7.54,5.98,12.46,13.71,15.25,7.05,2.53,17.02,3.25,30.43,2.51.67-.03,1.19-.61,1.15-1.28-.03-.67-.61-1.19-1.28-1.16-12.96.61-22.59-.1-29.38-2.6-6.69-2.47-10.48-6.74-11.85-13.3-.84-4.02-1.13-8.46-1.14-12.73-.02-10.15,1.62-19.28,1.62-19.28.02-.07.02-.15.02-.22,0,0,.41-10.67,12.3-16.09,5.02-2.29,12.02-3.65,21.76-3.03,14.05.87,23.49,3.26,29.69,7.29,8.71,5.67,10.78,14.62,10.43,26.83-.02.68.51,1.25,1.19,1.27.68.02,1.24-.51,1.26-1.19Z"/>
  <path class="cls-5" d="m620.27,214.82s14.77,1.7,27.92,2.99c8.14.8,15.67,1.42,18.7,1.59.05,0,.09,0,.15,0,0,0,2.12-.09,3.94,1.42.93.78,1.78,1.97,2.26,3.78.67,2.52.65,5.22.85,7.7.17,2.1.48,4.05,1.31,5.67.92,1.82,2.44,3.28,5.11,4.08.65.2,1.33-.16,1.53-.8.2-.64-.16-1.33-.81-1.53-2.54-.82-3.6-2.43-4.07-4.42-.79-3.33-.24-7.55-1.19-11.39-.63-2.54-1.83-4.2-3.13-5.31-2.42-2.07-5.24-2.19-5.84-2.19l-46.51-4.03c-.68-.07-1.28.43-1.35,1.1-.07.68.42,1.28,1.1,1.35Z"/>
  <path class="cls-5" d="m682.5,242.16s2.09-1.49,5.04-2.02c1.56-.28,3.38-.27,5.26.4,1.2.43,2.1,1.62,2.69,3.07.82,2.01.95,4.57.1,6.85-1.12,3.03-4.03,5.49-9.45,5.62-.81.02-1.45.68-1.43,1.48l.55,18.19c0,.67.57,1.21,1.24,1.2.68-.01,1.22-.57,1.2-1.24l-.07-16.78c6.16-.51,9.48-3.72,10.83-7.41,1.11-3.01.87-6.4-.25-9.04-.96-2.27-2.58-3.98-4.5-4.62-2.41-.79-4.71-.74-6.68-.33-3.56.75-6.01,2.66-6.01,2.66-.55.41-.65,1.18-.25,1.72.41.54,1.18.65,1.72.25Z"/>
  <path class="cls-5" d="m689.83,243.45s-.83-.24-2.06-.18c-.6.03-1.29.16-1.98.45-.37.15-.73.36-1.08.62-.69.51-1.35,1.17-1.89,2.09-.41.54-.3,1.31.24,1.71.54.41,1.31.3,1.72-.24.54-.58,1.17-.88,1.73-1.15.39-.19.77-.33,1.12-.44,1.02-.33,1.79-.42,1.79-.42.67.11,1.3-.35,1.41-1.02.11-.67-.35-1.3-1.02-1.41Z"/>
  <path class="cls-5" d="m635.84,252.85s1.57.57,3.91.78c1.18.11,2.54.12,3.98-.09.78-.11,1.56-.3,2.36-.56,1.69-.56,3.39-1.44,4.93-2.77.53-.41.63-1.18.22-1.72-.42-.53-1.19-.63-1.72-.21-1.58,1.11-3.29,1.66-4.9,2-1.12.24-2.21.36-3.21.42-2.79.16-4.9-.21-4.9-.21-.65-.18-1.33.2-1.52.85-.18.65.2,1.33.85,1.52Z"/>
  <path class="cls-5" d="m635.73,252.23s-.36,4.34,1.48,7.6c.91,1.6,2.34,2.93,4.46,3.53,2.48.64,5.32-.57,7.24-3.35,1.74-2.5,2.76-6.27,2.02-10.6-.1-.67-.72-1.13-1.39-1.04-.67.1-1.13.72-1.03,1.38.33,2.88-.23,5.4-1.24,7.32-.6,1.13-1.37,2.03-2.2,2.64-.84.61-1.75.92-2.62.69-1.68-.41-2.64-1.62-3.23-2.91-1.09-2.39-1.03-5.11-1.03-5.11.05-.68-.47-1.26-1.15-1.3-.68-.04-1.26.47-1.31,1.15Z"/>
  <path class="cls-5" d="m752.45,143.26s-.56,1.65-1.26,3.89c-.37,1.19-.79,2.55-1.15,3.92-.22.8-.4,1.61-.58,2.38-.71,3.05-1.23,5.59-1.23,5.59-.17.65.21,1.32.87,1.5.65.17,1.32-.21,1.49-.87,0,0,.82-2.46,1.73-5.46.23-.76.48-1.55.69-2.35.37-1.37.69-2.75.97-3.97.52-2.29.85-4,.85-4,.18-.66-.22-1.33-.87-1.51-.66-.18-1.33.21-1.51.87Z"/>
  <path class="cls-5" d="m598.96,280.03s.18,5.81.46,13.87c.14,4.18.3,8.97.5,13.87.15,3.71.32,7.47.49,11.09.29,6.41.58,12.34.71,16.62.09,2.96.12,5.11.05,6.03-.07.67.43,1.27,1.1,1.33.67.06,1.27-.43,1.33-1.1.22-2.2.12-11.23-.18-21.76-.08-3.01-.18-6.13-.31-9.26-.22-5.36-.5-10.71-.76-15.42-.49-8.85-.94-15.41-.94-15.41-.03-.68-.61-1.2-1.29-1.17-.68.03-1.2.61-1.17,1.29Z"/>
  <path class="cls-5" d="m636.96,349.41v.06c0,.36-.02,1.11-.08,2.16-.28,4.32-1.28,13.57-3.72,22.01-1.64,5.71-3.91,11.06-7.16,14.12-4.14,3.91-9.72,5.64-15.1,6.2-6.87.71-13.45-.5-16.49-1.94-2.05-.96-4.03-2.26-5.46-3.57-.49-.45-.92-.9-1.23-1.33-.23-.3-.41-.59-.5-.87-.02-.06-.04-.16-.05-.21.08-.05.4-.23.7-.31,3.13-.8,7.57-2.24,11-5.06,2.13-1.75,3.89-4.01,4.77-6.93.71-2.37,1.11-5.43,1.3-8.49.4-6.3-.02-12.61-.02-12.61-.05-.68-.62-1.19-1.3-1.15-.68.04-1.2.62-1.15,1.3,0,0,.32,6.14-.15,12.27-.22,2.84-.61,5.68-1.29,7.87-.74,2.35-2.2,4.14-3.93,5.53-3.11,2.49-7.12,3.71-9.93,4.4-1.52.37-2.32,1.12-2.69,1.92-.43.93-.35,2.1.36,3.37,1.24,2.18,4.65,4.89,8.28,6.62,3.34,1.58,10.57,3.02,18.11,2.21,6.01-.64,12.19-2.72,16.79-7.12,3.53-3.39,6.07-9.22,7.81-15.49,2.39-8.69,3.29-18.18,3.53-22.62.06-1.15.08-1.97.06-2.37,0-.38-.08-.61-.11-.68-.26-.62-.98-.92-1.6-.66-.54.23-.84.8-.73,1.35Z"/>
  <path class="cls-1" d="m773,166.75l-23.31-7.78c-.68-.22-1.41.11-1.69.76,0,0-9.73,22.16-20.02,45.87-7.43,17.12-15.12,35.06-19.9,45.91-2.06,4.68-3.54,8.02-4.21,9.38l-13.39.49c-.68.02-1.21.59-1.19,1.26.02.67.59,1.2,1.25,1.18l14.15-.36c.43-.01.83-.24,1.05-.61.94-1.47,9.21-19.9,18.36-40.74,3.55-8.08,7.23-16.52,10.66-24.47,7.3-16.89,13.52-31.55,15.26-35.67l22.2,7.11c.65.21,1.34-.14,1.55-.79.22-.65-.14-1.34-.79-1.55Z"/>
  <path class="cls-5" d="m771.65,167.88s-4.04,12.22-9.41,28.71c-2.86,8.77-6.1,18.75-9.3,28.74-1.87,5.83-3.71,11.68-5.47,17.28-6.94,22.03-12.64,40.36-12.64,40.36-.21.64.15,1.33.79,1.54.65.21,1.33-.15,1.54-.79,0,0,6-18.24,13.14-40.2,1.82-5.59,3.71-11.41,5.57-17.24,3.2-9.99,6.35-20,9.12-28.8,5.2-16.54,9.01-28.83,9.01-28.83.21-.65-.15-1.34-.8-1.55-.65-.21-1.34.15-1.55.8Z"/>
  <path class="cls-2" d="m657.6,302.8s2.99-1.18,4.54,0c1.56,1.18.47,4.61.47,4.61l-3.19.09-1.82-4.71Z"/>
  <path class="cls-2" d="m662.9,314.88s-3.12-.74-4.99.64c-1.86,1.38-2.68,3.28-2.42,5.55.25,2.27,4.32,4.34,4.32,4.34l2.92-4.47.17-6.06Z"/>
  <path class="cls-2" d="m645.33,320.66s1.92,2.98,2,4.91c.08,1.94-1.49,3.48-3.27,3.77-1.78.29-4.96-.24-5.13-.86-.16-.61,6.4-7.83,6.4-7.83Z"/>
  <path class="cls-2" d="m651.46,337.64s-4.08-.95-5.87-.23c-1.78.72-4.97,2.81-2.97,7.88,0,0,6.24-2.2,8.84-7.64Z"/>
  <path class="cls-2" d="m626.23,338.92s-.82,3.75.67,5.57c1.48,1.83,5.61,1.63,7.17,0,1.56-1.62,2.1-2.4,1.76-4.43-.35-2.02-2.65-4.66-4.06-4.66-1.41,0-5.54,3.51-5.54,3.51Z"/>
  <path class="cls-5" d="m615.17,353.85s.55-3.52,3.8-3.25c3.25.27,5.53,1.63,5.53,1.63,0,0-8.19.81-9.34,1.62Z"/>
  <path class="cls-2" d="m613.33,339.6s.79,4.57-1.45,6.67-4.83,1.12-5.95.25c-1.12-.86-2.22-4-2.22-4l5.77-3.41,3.85.48Z"/>
  <g>
    <path class="cls-2" d="m663.92,293.39c-.54,0-1.02.36-1.17.87,0,0-.4,1.14-.35,2.55.03.86.26,1.79.78,2.65.81,1.32,2.59,1.83,4.33,1.56,1.06-.16,2.08-.61,2.76-1.17.52-.44.87-.95,1.03-1.48.2-.67.22-1.37.12-2.03-.22-1.34-.91-2.46-.91-2.46-.25-.44-.73-.72-1.25-.71l-5.33.23h0Zm4.47,3.99h0c.12.08-.23.2-.39.29-.3.16-.65.29-1.02.36-.34.07-.69.11-1,.04-.17-.03-.35-.04-.44-.18-.29-.41-.45-.88-.5-1.31-.03-.25-.04-.5-.04-.71h0l3.26.12c.05.16.1.33.13.52.05.27.08.58,0,.86Zm0,0s0,.04-.02.06c0-.02.02-.04.02-.06Z"/>
    <path class="cls-2" d="m657.14,301.67c-.63.25-.94.95-.69,1.58,0,0,1.63,4.78,1.63,4.78.22.57.78.93,1.39.92h3.19c.65-.02,1.21-.45,1.41-1.07,0,0,.59-1.86.39-3.51-.13-1.1-.58-2.11-1.44-2.72-.75-.52-1.69-.77-2.63-.74-1.63.04-3.24.75-3.24.75h0Zm2.18,2.02c.21-.03.43-.04.66-.05.45,0,.94.04,1.29.32.08.07.08.19.12.3.06.24.06.5.06.76,0,.33-.04.65-.08.94l-1.03.06-1.02-2.33Z"/>
    <path class="cls-2" d="m664.11,314.92c.02-.58-.38-1.1-.94-1.23,0,0-1.76-.46-3.57-.22-.88.12-1.76.42-2.51.94-1.17.82-2,1.82-2.53,2.96-.53,1.15-.72,2.45-.58,3.88.12,1.07.75,2.15,1.66,3.06,1.45,1.44,3.48,2.44,3.48,2.44.69.35,1.52.13,1.94-.52l2.83-4.53c.15-.21.22-.46.23-.72v-6.06Zm-2.5,1.06l-.25,4.5-1.99,2.9c-.37-.25-.78-.56-1.17-.9-.55-.48-1.14-.98-1.21-1.59-.12-.86-.05-1.65.25-2.36.29-.72.79-1.35,1.49-1.9.49-.38,1.12-.55,1.71-.62.42-.05.82-.05,1.17-.04Z"/>
    <path class="cls-2" d="m646.36,320c-.21-.32-.55-.52-.93-.56-.38-.03-.75.11-1.01.4,0,0-4.64,4.83-6.21,6.91-.4.53-.62.97-.7,1.21-.12.39-.08.71-.02.93.08.3.26.63.6.92.25.22.71.47,1.3.66,1.29.41,3.5.61,4.92.38,1.22-.22,2.39-.86,3.19-1.8.82-.95,1.32-2.18,1.24-3.53-.05-.76-.32-1.66-.69-2.51-.69-1.58-1.69-3.02-1.69-3.02h0Zm-5.84,8.6c.03.22.02.4-.18.31-.08-.03.05-.17.18-.31Zm4.56-5.75c.17.36.34.75.48,1.16.2.56.35,1.14.36,1.62,0,.57-.25,1.06-.62,1.44-.38.41-.93.68-1.49.76-.67.11-1.96.22-2.86.15,1.05-1.45,2.92-3.7,4.12-5.14Zm-4.77,5.03c-.28-.08-.42-.22-.32-.42.05-.11.15.14.19.2.05.07.1.14.13.22Z"/>
    <path class="cls-2" d="m652.56,338.17c.16-.34.16-.73,0-1.06s-.46-.58-.82-.67c0,0-1.89-.5-3.74-.64-1.09-.08-2.17,0-2.93.29-1.39.53-3.41,1.73-4.23,4.03-.52,1.42-.58,3.3.38,5.72.3.76,1.15,1.15,1.92.88,0,0,2.81-1.02,5.51-3.38,1.5-1.31,2.97-3.02,3.92-5.17h0Zm-3.13.42c-.77,1.03-1.68,1.89-2.58,2.6-1.19.93-2.37,1.6-3.26,2.03-.15-.83-.09-1.52.1-2.1.45-1.35,1.64-2.06,2.44-2.4.44-.2,1.09-.23,1.75-.23.53,0,1.07.04,1.56.09Z"/>
    <path class="cls-2" d="m625.44,337.98c-.21.17-.35.41-.4.68,0,0-.49,1.97-.28,3.89.12,1.04.45,2.04,1.05,2.82.96,1.24,2.79,1.9,4.67,1.9,1.84,0,3.66-.67,4.69-1.7,1.15-1.2,1.8-2.06,2.09-3.06.21-.74.25-1.58.05-2.68-.26-1.36-1.2-2.97-2.32-4.1-1.08-1.08-2.32-1.71-3.23-1.69-.58.02-1.52.37-2.5,1-1.75,1.12-3.82,2.96-3.82,2.96h0Zm6.36-1.18c.12.02.23.14.38.24.37.26.73.65,1.07,1.08.53.68.98,1.49,1.09,2.21.11.66.1,1.12-.11,1.54-.24.5-.67.95-1.26,1.57-.54.57-1.55.84-2.52.87-.95.03-1.95-.09-2.46-.7-.42-.5-.58-1.22-.64-1.91-.08-.86-.02-1.67.04-2.13h0c.55-.43,1.66-1.27,2.74-1.94.43-.27.86-.51,1.23-.68.18-.08.44-.28.46-.16,0,0,0,0-.02,0Zm0,0s-.02,0-.03,0c0,0,.02,0,.03,0Z"/>
    <path class="cls-2" d="m613.96,353.66c-.07.49.15.97.57,1.23.42.26.96.24,1.36-.04.12-.08.36-.1.67-.17.67-.15,1.56-.26,2.51-.38,2.6-.32,5.6-.55,5.6-.55.65-.06,1.19-.54,1.34-1.19.15-.64-.15-1.31-.71-1.65,0,0-1.15-.73-3.04-1.25-.9-.25-1.98-.45-3.16-.52-1.66-.08-2.82.5-3.6,1.3-1.29,1.32-1.54,3.21-1.54,3.21h0Z"/>
    <path class="cls-2" d="m614.54,339.39c-.09-.53-.52-.94-1.06-1l-3.83-.59c-.29-.04-.59.02-.84.17l-5.87,3.27c-.61.36-.89,1.11-.65,1.78,0,0,.5,1.49,1.19,2.77.45.83.99,1.55,1.51,1.95.85.64,2.34,1.35,4,1.29,1.25-.05,2.62-.49,3.86-1.71.87-.86,1.41-1.99,1.66-3.18.5-2.31.02-4.75.02-4.75h0Zm-2.36,1.32c0,.58,0,1.38-.16,2.2-.16.84-.46,1.72-1.12,2.31-.65.59-1.34.79-1.97.8-.86,0-1.62-.37-2.06-.71-.33-.25-.62-.82-.89-1.35-.15-.29-.28-.58-.41-.84l4.23-2.63,2.38.23Z"/>
  </g>
  <g>
    <path class="cls-5" d="m204.55,521.32c-.45-.49-1.21-.52-1.7-.08,0,0-16.1,14.14-16.1,14.14-.52.46-.61,1.24-.2,1.8l7.98,11.4c.4.57,1.15.77,1.78.47l5.67-2.63c-.12,1.91-.18,4.66.1,7.44.24,2.39.73,4.79,1.62,6.74,1.58,3.44,5.91,7.88,10.36,10.92,2.22,1.51,4.46,2.68,6.37,3.25,1.34.4,2.56.5,3.55.32,1.54-.29,2.29-1.04,2.61-1.89.28-.75.24-1.73-.27-2.9-1.16-2.71-5.17-7.13-7.66-12.28,0,0-2.09-13.23-2.09-13.23l4.22-4.43c.49-.52.5-1.34,0-1.86l-16.24-17.17h0Z"/>
    <path class="cls-5" d="m223.7,572.03c-.08.03-.19.06-.28.08-.75.14-1.68-.08-2.73-.46-2.08-.76-4.49-2.24-6.77-4.02-3.27-2.56-6.27-5.71-7.46-8.29-.77-1.67-1.18-3.74-1.39-5.78-.5-4.72.04-9.35.04-9.35.07-.53-.16-1.06-.59-1.37-.44-.31-1.01-.37-1.49-.14l-6.87,3.25-6.69-9.35,14.11-12.72,14.36,15.52-3.86,3.97c-.3.31-.44.75-.37,1.17l2.11,14.14c.02.14.06.27.12.4,2.02,4.36,5.14,8.23,6.84,11.01.18.3.35.59.49.87.19.36.35.85.42,1.09Z"/>
  </g>
  <path class="cls-5" d="m657.18,308.58l7.18,1.62c.52.09,1.05-.08,1.42-.47,0,0,1.78-1.79,3.71-3.91,2.54-2.77,5.36-6.07,5.36-6.07.5-.54.5-1.4,0-1.94-.51-.53-1.35-.53-1.86,0,0,0-3.14,2.97-5.77,5.63-1.32,1.33-2.51,2.59-3.17,3.3l-6.4-.89c-.72-.13-1.4.37-1.53,1.12-.13.75.36,1.46,1.07,1.59Z"/>
  <path class="cls-5" d="m659.52,307.01s-.25-1.06-.65-2.47c-.22-.75-.47-1.6-.77-2.43-.17-.49-.37-.96-.56-1.42-.76-1.8-1.45-3.27-1.45-3.27-.22-.64-.92-.97-1.55-.74-.64.23-.97.93-.75,1.56,0,0,.4,1.57.95,3.44.15.48.28.97.46,1.46.3.83.64,1.65.95,2.37.58,1.35,1.05,2.33,1.05,2.33.23.64.93.97,1.57.75.64-.23.97-.93.75-1.57Z"/>
  <path class="cls-5" d="m657.88,307.07s-4.12,2.33-7.08,4.18c-1.55.96-2.79,1.83-3.14,2.23-.67.74-5.14,6.89-10.25,12.6-2.5,2.8-5.17,5.49-7.58,7.33-2.09,1.59-4.67,2.53-7.24,3.08-6.13,1.33-12.26.49-12.26.49-.3-.04-.61.01-.88.15l-13.99,7.12c-.48.25-.8.74-.83,1.28-.03.54.23,1.06.69,1.36l15.19,9.96c.27.18.58.26.9.25,0,0,13.13-.6,24.9-5.16,5.6-2.17,10.88-5.23,14.39-9.49,3.98-4.83,6.9-9.01,9-12.37,3.63-5.78,4.84-9.14,4.84-9.14.03-.08.05-.16.07-.24l1.69-10.93c.11-.67-.35-1.29-1.01-1.4-.67-.11-1.29.35-1.4,1.01l-1.78,10.78c-.27.67-1.9,4.51-6.02,10.59-1.92,2.85-4.4,6.19-7.54,9.92-3.25,3.88-8.14,6.6-13.29,8.55-10.05,3.81-21.09,4.65-23.51,4.8l-12.56-8.25,11.22-5.77c1.64.16,7.23.57,12.8-.68,2.98-.67,5.94-1.81,8.35-3.67,2.53-1.96,5.3-4.8,7.91-7.77,5.06-5.75,9.47-11.95,10.12-12.7.36-.41,1.88-1.37,3.55-2.41,2.76-1.72,5.97-3.58,5.97-3.58.59-.34.79-1.09.45-1.68-.34-.59-1.09-.79-1.68-.46Z"/>
  <path class="cls-5" d="m658.83,294.87s1.15.15,2.71.27c.83.07,1.77.14,2.72.16.55.01,1.11,0,1.64-.02,2.09-.06,3.81-.17,3.81-.17.68.02,1.23-.52,1.25-1.19.02-.67-.52-1.23-1.19-1.25,0,0-1.72-.19-3.8-.35-.52-.04-1.08-.08-1.62-.09-.95-.02-1.89,0-2.73.03-1.57.05-2.73.15-2.73.15-.68-.02-1.24.52-1.25,1.2-.02.68.52,1.24,1.2,1.26Z"/>
  <path class="cls-5" d="m685.06,277.85s-4.49,2.89-8.95,5.82c-4.46,2.92-8.91,5.88-8.91,5.88-.35.23-.58.6-.65,1-.07.41.03.83.28,1.17l8.51,11.53c.24.33.6.54,1.01.58.4.04.81-.09,1.11-.36l9.82-9.17c.5-.45.54-1.23.08-1.73-.45-.5-1.22-.54-1.72-.09l-8.89,7.8-6.52-9.1c1.62-1.12,4.56-3.14,7.48-5.18,4.39-3.05,8.75-6.13,8.75-6.13.56-.38.71-1.15.33-1.71-.38-.56-1.15-.71-1.71-.33Z"/>
</svg>