<?xml version="1.0" encoding="UTF-8"?>
<svg xmlns="http://www.w3.org/2000/svg" width="74" height="65" viewBox="0 0 74 65" fill="none">
  <path d="M73.1502 26.5797C73.1502 20.7651 66.8118 15.7535 57.0435 12.8423C53.4197 5.42269 45.797 0.297363 36.9987 0.297363C28.2017 0.297363 20.5791 5.42139 16.9565 12.8423C7.18958 15.7535 0.849854 20.7651 0.849854 26.5797C0.849854 31.5964 5.56778 36.0156 13.1336 39.0057L10.6711 49.2951C7.94357 49.3404 5.82255 50.7786 5.82255 52.6163C5.82255 54.4826 8.00823 55.9453 10.7992 55.9453C13.5888 55.9453 15.7745 54.4826 15.7745 52.6163C15.7745 51.4485 14.9183 50.4397 13.5966 49.8474L18.2356 40.6883C22.8966 41.9518 28.2703 42.7459 34.0642 42.9476L35.7352 57.7559C33.5806 58.1219 32.0234 59.3958 32.0234 60.9671C32.0234 62.832 34.2091 64.2974 37 64.2974C39.7897 64.2974 41.9766 62.8333 41.9766 60.9671C41.9766 59.3958 40.4195 58.1219 38.2649 57.7559L39.9358 42.9476C45.7337 42.7459 51.1099 41.9505 55.7709 40.687L60.441 49.9159C59.0998 50.5057 58.2269 51.5209 58.2269 52.6978C58.2269 54.564 60.4138 56.028 63.2022 56.028C65.9931 56.028 68.1788 54.5653 68.1788 52.6978C68.1788 50.8652 66.0681 49.4296 63.3496 49.3792L60.8665 39.007C68.4323 36.0156 73.1502 31.5964 73.1502 26.5797ZM36.9987 2.09117C48.3047 2.09117 57.5013 11.2865 57.5013 22.5912C57.5013 27.2147 48.112 31.1205 36.9987 31.1205C25.8867 31.1205 16.4987 27.2134 16.4987 22.5912C16.4987 11.2865 25.6953 2.09117 36.9987 2.09117ZM2.64495 26.5797C2.64495 22.8098 6.12132 19.2014 12.4339 16.4209C13.5565 15.9268 14.7683 15.4884 16.015 15.0746C15.6865 15.9902 15.4175 16.9343 15.208 17.9004C13.1853 19.5584 12.0226 21.4686 12.0226 23.5042C12.0226 29.844 23.2057 34.9874 37 34.9874C50.7956 34.9874 61.98 29.844 61.98 23.5042C61.98 21.4686 60.8174 19.5597 58.7946 17.9017C58.5864 16.9343 58.3174 15.9915 57.9889 15.0746C59.2344 15.4884 60.4462 15.9268 61.5687 16.4209C67.8826 19.2027 71.359 22.8098 71.359 26.5797C71.359 30.3497 67.8826 33.9592 61.5687 36.7385C55.0208 39.6213 46.2975 41.2108 37.0013 41.2108C27.7064 41.2108 18.9831 39.6213 12.4352 36.7385C6.12131 33.9592 2.64495 30.3497 2.64495 26.5797ZM13.9807 52.6163C13.9807 53.3419 12.6201 54.1527 10.7992 54.1527C8.97691 54.1527 7.61506 53.3419 7.61506 52.6163C7.61506 51.9697 8.70532 51.2571 10.2366 51.1122L9.92749 52.4068C9.87187 52.6409 9.91067 52.8853 10.0361 53.0871C10.1616 53.2914 10.3633 53.4363 10.5961 53.4893L10.9453 53.5708C11.0139 53.5863 11.0811 53.5941 11.1484 53.5941C11.4794 53.5941 11.7937 53.4078 11.9476 53.1039L12.7844 51.4524C13.5177 51.755 13.9807 52.1973 13.9807 52.6163ZM13.0961 46.8663L14.8265 39.6368C15.3671 39.8243 15.9167 40.0067 16.4832 40.1813L13.0961 46.8663ZM40.1828 60.9658C40.1828 61.6914 38.821 62.5023 36.9987 62.5023C35.1765 62.5023 33.8159 61.6914 33.8159 60.9658C33.8159 60.3916 34.676 59.7708 35.9343 59.5342L36.1077 61.0667C36.1594 61.5207 36.5422 61.8634 36.9987 61.8634C37.4553 61.8634 37.8394 61.5207 37.8898 61.0667L38.0631 59.5342C39.3228 59.7708 40.1828 60.3929 40.1828 60.9658ZM37 52.9655L35.8761 42.9916C36.2499 42.9968 36.6224 43.0033 36.9987 43.0033C37.3764 43.0033 37.7501 42.9968 38.1252 42.9916L37 52.9655ZM66.385 52.6965C66.385 53.4233 65.0231 54.2329 63.2022 54.2329C61.3812 54.2329 60.0207 53.4233 60.0207 52.6965C60.0207 52.271 60.4966 51.8209 61.2532 51.517L62.055 53.1013C62.2102 53.4078 62.5232 53.5928 62.8543 53.5928C62.9215 53.5928 62.9888 53.585 63.0586 53.5695L63.4078 53.488C63.6406 53.4337 63.8424 53.2901 63.9678 53.0858C64.0933 52.8827 64.1308 52.6383 64.0765 52.4055L63.7855 51.1911C65.3038 51.3424 66.385 52.0524 66.385 52.6965ZM60.9014 46.8547L57.522 40.1787C58.0859 40.0054 58.633 39.8231 59.1723 39.6355L60.9014 46.8547Z" fill="#414042"></path>
</svg>
